<?xml version="1.0" encoding="utf-8" standalone="no"?>
<!DOCTYPE svg PUBLIC "-//W3C//DTD SVG 1.1//EN"
  "http://www.w3.org/Graphics/SVG/1.1/DTD/svg11.dtd">
<svg xmlns:xlink="http://www.w3.org/1999/xlink" width="1184.830979pt" height="426.30577pt" viewBox="0 0 1184.830979 426.30577" xmlns="http://www.w3.org/2000/svg" version="1.1">
 <metadata>
  <rdf:RDF xmlns:dc="http://purl.org/dc/elements/1.1/" xmlns:cc="http://creativecommons.org/ns#" xmlns:rdf="http://www.w3.org/1999/02/22-rdf-syntax-ns#">
   <cc:Work>
    <dc:type rdf:resource="http://purl.org/dc/dcmitype/StillImage"/>
    <dc:date>2026-01-17T11:53:31.564947</dc:date>
    <dc:format>image/svg+xml</dc:format>
    <dc:creator>
     <cc:Agent>
      <dc:title>Matplotlib v3.8.2, https://matplotlib.org/</dc:title>
     </cc:Agent>
    </dc:creator>
   </cc:Work>
  </rdf:RDF>
 </metadata>
 <defs>
  <style type="text/css">*{stroke-linejoin: round; stroke-linecap: butt}</style>
 </defs>
 <g id="figure_1">
  <g id="patch_1">
   <path d="M 0 426.30577 
L 1184.830979 426.30577 
L 1184.830979 0 
L 0 0 
z
" style="fill: #ffffff"/>
  </g>
  <g id="axes_1">
   <g id="patch_2">
    <path d="M 39.744688 376.767831 
L 321.931942 376.767831 
L 321.931942 49.92 
L 39.744688 49.92 
z
" style="fill: #ffffff"/>
   </g>
   <g id="matplotlib.axis_1">
    <g id="xtick_1">
     <g id="line2d_1"/>
     <g id="text_1">
      <!-- Visu -->
      <g style="fill: #262626" transform="translate(51.322367 398.429979) rotate(-45) scale(0.09 -0.09)">
       <defs>
        <path id="DejaVuSans-56" d="M 1831 0 
L 50 4666 
L 709 4666 
L 2188 738 
L 3669 4666 
L 4325 4666 
L 2547 0 
L 1831 0 
z
" transform="scale(0.015625)"/>
        <path id="DejaVuSans-69" d="M 603 3500 
L 1178 3500 
L 1178 0 
L 603 0 
L 603 3500 
z
M 603 4863 
L 1178 4863 
L 1178 4134 
L 603 4134 
L 603 4863 
z
" transform="scale(0.015625)"/>
        <path id="DejaVuSans-73" d="M 2834 3397 
L 2834 2853 
Q 2591 2978 2328 3040 
Q 2066 3103 1784 3103 
Q 1356 3103 1142 2972 
Q 928 2841 928 2578 
Q 928 2378 1081 2264 
Q 1234 2150 1697 2047 
L 1894 2003 
Q 2506 1872 2764 1633 
Q 3022 1394 3022 966 
Q 3022 478 2636 193 
Q 2250 -91 1575 -91 
Q 1294 -91 989 -36 
Q 684 19 347 128 
L 347 722 
Q 666 556 975 473 
Q 1284 391 1588 391 
Q 1994 391 2212 530 
Q 2431 669 2431 922 
Q 2431 1156 2273 1281 
Q 2116 1406 1581 1522 
L 1381 1569 
Q 847 1681 609 1914 
Q 372 2147 372 2553 
Q 372 3047 722 3315 
Q 1072 3584 1716 3584 
Q 2034 3584 2315 3537 
Q 2597 3491 2834 3397 
z
" transform="scale(0.015625)"/>
        <path id="DejaVuSans-75" d="M 544 1381 
L 544 3500 
L 1119 3500 
L 1119 1403 
Q 1119 906 1312 657 
Q 1506 409 1894 409 
Q 2359 409 2629 706 
Q 2900 1003 2900 1516 
L 2900 3500 
L 3475 3500 
L 3475 0 
L 2900 0 
L 2900 538 
Q 2691 219 2414 64 
Q 2138 -91 1772 -91 
Q 1169 -91 856 284 
Q 544 659 544 1381 
z
M 1991 3584 
L 1991 3584 
z
" transform="scale(0.015625)"/>
       </defs>
       <use xlink:href="#DejaVuSans-56"/>
       <use xlink:href="#DejaVuSans-69" x="66.158203"/>
       <use xlink:href="#DejaVuSans-73" x="93.941406"/>
       <use xlink:href="#DejaVuSans-75" x="146.041016"/>
      </g>
     </g>
    </g>
    <g id="xtick_2">
     <g id="line2d_2"/>
     <g id="text_2">
      <!-- Soma -->
      <g style="fill: #262626" transform="translate(84.904656 403.136327) rotate(-45) scale(0.09 -0.09)">
       <defs>
        <path id="DejaVuSans-53" d="M 3425 4513 
L 3425 3897 
Q 3066 4069 2747 4153 
Q 2428 4238 2131 4238 
Q 1616 4238 1336 4038 
Q 1056 3838 1056 3469 
Q 1056 3159 1242 3001 
Q 1428 2844 1947 2747 
L 2328 2669 
Q 3034 2534 3370 2195 
Q 3706 1856 3706 1288 
Q 3706 609 3251 259 
Q 2797 -91 1919 -91 
Q 1588 -91 1214 -16 
Q 841 59 441 206 
L 441 856 
Q 825 641 1194 531 
Q 1563 422 1919 422 
Q 2459 422 2753 634 
Q 3047 847 3047 1241 
Q 3047 1584 2836 1778 
Q 2625 1972 2144 2069 
L 1759 2144 
Q 1053 2284 737 2584 
Q 422 2884 422 3419 
Q 422 4038 858 4394 
Q 1294 4750 2059 4750 
Q 2388 4750 2728 4690 
Q 3069 4631 3425 4513 
z
" transform="scale(0.015625)"/>
        <path id="DejaVuSans-6f" d="M 1959 3097 
Q 1497 3097 1228 2736 
Q 959 2375 959 1747 
Q 959 1119 1226 758 
Q 1494 397 1959 397 
Q 2419 397 2687 759 
Q 2956 1122 2956 1747 
Q 2956 2369 2687 2733 
Q 2419 3097 1959 3097 
z
M 1959 3584 
Q 2709 3584 3137 3096 
Q 3566 2609 3566 1747 
Q 3566 888 3137 398 
Q 2709 -91 1959 -91 
Q 1206 -91 779 398 
Q 353 888 353 1747 
Q 353 2609 779 3096 
Q 1206 3584 1959 3584 
z
" transform="scale(0.015625)"/>
        <path id="DejaVuSans-6d" d="M 3328 2828 
Q 3544 3216 3844 3400 
Q 4144 3584 4550 3584 
Q 5097 3584 5394 3201 
Q 5691 2819 5691 2113 
L 5691 0 
L 5113 0 
L 5113 2094 
Q 5113 2597 4934 2840 
Q 4756 3084 4391 3084 
Q 3944 3084 3684 2787 
Q 3425 2491 3425 1978 
L 3425 0 
L 2847 0 
L 2847 2094 
Q 2847 2600 2669 2842 
Q 2491 3084 2119 3084 
Q 1678 3084 1418 2786 
Q 1159 2488 1159 1978 
L 1159 0 
L 581 0 
L 581 3500 
L 1159 3500 
L 1159 2956 
Q 1356 3278 1631 3431 
Q 1906 3584 2284 3584 
Q 2666 3584 2933 3390 
Q 3200 3197 3328 2828 
z
" transform="scale(0.015625)"/>
        <path id="DejaVuSans-61" d="M 2194 1759 
Q 1497 1759 1228 1600 
Q 959 1441 959 1056 
Q 959 750 1161 570 
Q 1363 391 1709 391 
Q 2188 391 2477 730 
Q 2766 1069 2766 1631 
L 2766 1759 
L 2194 1759 
z
M 3341 1997 
L 3341 0 
L 2766 0 
L 2766 531 
Q 2569 213 2275 61 
Q 1981 -91 1556 -91 
Q 1019 -91 701 211 
Q 384 513 384 1019 
Q 384 1609 779 1909 
Q 1175 2209 1959 2209 
L 2766 2209 
L 2766 2266 
Q 2766 2663 2505 2880 
Q 2244 3097 1772 3097 
Q 1472 3097 1187 3025 
Q 903 2953 641 2809 
L 641 3341 
Q 956 3463 1253 3523 
Q 1550 3584 1831 3584 
Q 2591 3584 2966 3190 
Q 3341 2797 3341 1997 
z
" transform="scale(0.015625)"/>
       </defs>
       <use xlink:href="#DejaVuSans-53"/>
       <use xlink:href="#DejaVuSans-6f" x="63.476562"/>
       <use xlink:href="#DejaVuSans-6d" x="124.658203"/>
       <use xlink:href="#DejaVuSans-61" x="222.070312"/>
      </g>
     </g>
    </g>
    <g id="xtick_3">
     <g id="line2d_3"/>
     <g id="text_3">
      <!-- Dors -->
      <g style="fill: #262626" transform="translate(126.500564 399.829056) rotate(-45) scale(0.09 -0.09)">
       <defs>
        <path id="DejaVuSans-44" d="M 1259 4147 
L 1259 519 
L 2022 519 
Q 2988 519 3436 956 
Q 3884 1394 3884 2338 
Q 3884 3275 3436 3711 
Q 2988 4147 2022 4147 
L 1259 4147 
z
M 628 4666 
L 1925 4666 
Q 3281 4666 3915 4102 
Q 4550 3538 4550 2338 
Q 4550 1131 3912 565 
Q 3275 0 1925 0 
L 628 0 
L 628 4666 
z
" transform="scale(0.015625)"/>
        <path id="DejaVuSans-72" d="M 2631 2963 
Q 2534 3019 2420 3045 
Q 2306 3072 2169 3072 
Q 1681 3072 1420 2755 
Q 1159 2438 1159 1844 
L 1159 0 
L 581 0 
L 581 3500 
L 1159 3500 
L 1159 2956 
Q 1341 3275 1631 3429 
Q 1922 3584 2338 3584 
Q 2397 3584 2469 3576 
Q 2541 3569 2628 3553 
L 2631 2963 
z
" transform="scale(0.015625)"/>
       </defs>
       <use xlink:href="#DejaVuSans-44"/>
       <use xlink:href="#DejaVuSans-6f" x="77.001953"/>
       <use xlink:href="#DejaVuSans-72" x="138.183594"/>
       <use xlink:href="#DejaVuSans-73" x="179.296875"/>
      </g>
     </g>
    </g>
    <g id="xtick_4">
     <g id="line2d_4"/>
     <g id="text_4">
      <!-- Vent -->
      <g style="fill: #262626" transform="translate(165.210813 399.407444) rotate(-45) scale(0.09 -0.09)">
       <defs>
        <path id="DejaVuSans-65" d="M 3597 1894 
L 3597 1613 
L 953 1613 
Q 991 1019 1311 708 
Q 1631 397 2203 397 
Q 2534 397 2845 478 
Q 3156 559 3463 722 
L 3463 178 
Q 3153 47 2828 -22 
Q 2503 -91 2169 -91 
Q 1331 -91 842 396 
Q 353 884 353 1716 
Q 353 2575 817 3079 
Q 1281 3584 2069 3584 
Q 2775 3584 3186 3129 
Q 3597 2675 3597 1894 
z
M 3022 2063 
Q 3016 2534 2758 2815 
Q 2500 3097 2075 3097 
Q 1594 3097 1305 2825 
Q 1016 2553 972 2059 
L 3022 2063 
z
" transform="scale(0.015625)"/>
        <path id="DejaVuSans-6e" d="M 3513 2113 
L 3513 0 
L 2938 0 
L 2938 2094 
Q 2938 2591 2744 2837 
Q 2550 3084 2163 3084 
Q 1697 3084 1428 2787 
Q 1159 2491 1159 1978 
L 1159 0 
L 581 0 
L 581 3500 
L 1159 3500 
L 1159 2956 
Q 1366 3272 1645 3428 
Q 1925 3584 2291 3584 
Q 2894 3584 3203 3211 
Q 3513 2838 3513 2113 
z
" transform="scale(0.015625)"/>
        <path id="DejaVuSans-74" d="M 1172 4494 
L 1172 3500 
L 2356 3500 
L 2356 3053 
L 1172 3053 
L 1172 1153 
Q 1172 725 1289 603 
Q 1406 481 1766 481 
L 2356 481 
L 2356 0 
L 1766 0 
Q 1100 0 847 248 
Q 594 497 594 1153 
L 594 3053 
L 172 3053 
L 172 3500 
L 594 3500 
L 594 4494 
L 1172 4494 
z
" transform="scale(0.015625)"/>
       </defs>
       <use xlink:href="#DejaVuSans-56"/>
       <use xlink:href="#DejaVuSans-65" x="60.658203"/>
       <use xlink:href="#DejaVuSans-6e" x="122.181641"/>
       <use xlink:href="#DejaVuSans-74" x="185.560547"/>
      </g>
     </g>
    </g>
    <g id="xtick_5">
     <g id="line2d_5"/>
     <g id="text_5">
      <!-- Limb -->
      <g style="fill: #262626" transform="translate(202.250523 400.656371) rotate(-45) scale(0.09 -0.09)">
       <defs>
        <path id="DejaVuSans-4c" d="M 628 4666 
L 1259 4666 
L 1259 531 
L 3531 531 
L 3531 0 
L 628 0 
L 628 4666 
z
" transform="scale(0.015625)"/>
        <path id="DejaVuSans-62" d="M 3116 1747 
Q 3116 2381 2855 2742 
Q 2594 3103 2138 3103 
Q 1681 3103 1420 2742 
Q 1159 2381 1159 1747 
Q 1159 1113 1420 752 
Q 1681 391 2138 391 
Q 2594 391 2855 752 
Q 3116 1113 3116 1747 
z
M 1159 2969 
Q 1341 3281 1617 3432 
Q 1894 3584 2278 3584 
Q 2916 3584 3314 3078 
Q 3713 2572 3713 1747 
Q 3713 922 3314 415 
Q 2916 -91 2278 -91 
Q 1894 -91 1617 61 
Q 1341 213 1159 525 
L 1159 0 
L 581 0 
L 581 4863 
L 1159 4863 
L 1159 2969 
z
" transform="scale(0.015625)"/>
       </defs>
       <use xlink:href="#DejaVuSans-4c"/>
       <use xlink:href="#DejaVuSans-69" x="55.712891"/>
       <use xlink:href="#DejaVuSans-6d" x="83.496094"/>
       <use xlink:href="#DejaVuSans-62" x="180.908203"/>
      </g>
     </g>
    </g>
    <g id="xtick_6">
     <g id="line2d_6"/>
     <g id="text_6">
      <!-- Fron -->
      <g style="fill: #262626" transform="translate(242.493095 398.702436) rotate(-45) scale(0.09 -0.09)">
       <defs>
        <path id="DejaVuSans-46" d="M 628 4666 
L 3309 4666 
L 3309 4134 
L 1259 4134 
L 1259 2759 
L 3109 2759 
L 3109 2228 
L 1259 2228 
L 1259 0 
L 628 0 
L 628 4666 
z
" transform="scale(0.015625)"/>
       </defs>
       <use xlink:href="#DejaVuSans-46"/>
       <use xlink:href="#DejaVuSans-72" x="50.269531"/>
       <use xlink:href="#DejaVuSans-6f" x="89.132812"/>
       <use xlink:href="#DejaVuSans-6e" x="150.314453"/>
      </g>
     </g>
    </g>
    <g id="xtick_7">
     <g id="line2d_7"/>
     <g id="text_7">
      <!-- Defa -->
      <g style="fill: #262626" transform="translate(279.424418 400.05975) rotate(-45) scale(0.09 -0.09)">
       <defs>
        <path id="DejaVuSans-66" d="M 2375 4863 
L 2375 4384 
L 1825 4384 
Q 1516 4384 1395 4259 
Q 1275 4134 1275 3809 
L 1275 3500 
L 2222 3500 
L 2222 3053 
L 1275 3053 
L 1275 0 
L 697 0 
L 697 3053 
L 147 3053 
L 147 3500 
L 697 3500 
L 697 3744 
Q 697 4328 969 4595 
Q 1241 4863 1831 4863 
L 2375 4863 
z
" transform="scale(0.015625)"/>
       </defs>
       <use xlink:href="#DejaVuSans-44"/>
       <use xlink:href="#DejaVuSans-65" x="77.001953"/>
       <use xlink:href="#DejaVuSans-66" x="138.525391"/>
       <use xlink:href="#DejaVuSans-61" x="173.730469"/>
      </g>
     </g>
    </g>
    <g id="text_8">
     <!-- Brain Network -->
     <g style="fill: #262626" transform="translate(136.314956 416.818114) scale(0.11 -0.11)">
      <defs>
       <path id="DejaVuSans-Bold-42" d="M 2456 2859 
Q 2741 2859 2887 2984 
Q 3034 3109 3034 3353 
Q 3034 3594 2887 3720 
Q 2741 3847 2456 3847 
L 1791 3847 
L 1791 2859 
L 2456 2859 
z
M 2497 819 
Q 2859 819 3042 972 
Q 3225 1125 3225 1434 
Q 3225 1738 3044 1889 
Q 2863 2041 2497 2041 
L 1791 2041 
L 1791 819 
L 2497 819 
z
M 3616 2497 
Q 4003 2384 4215 2081 
Q 4428 1778 4428 1338 
Q 4428 663 3972 331 
Q 3516 0 2584 0 
L 588 0 
L 588 4666 
L 2394 4666 
Q 3366 4666 3802 4372 
Q 4238 4078 4238 3431 
Q 4238 3091 4078 2852 
Q 3919 2613 3616 2497 
z
" transform="scale(0.015625)"/>
       <path id="DejaVuSans-Bold-72" d="M 3138 2547 
Q 2991 2616 2845 2648 
Q 2700 2681 2553 2681 
Q 2122 2681 1889 2404 
Q 1656 2128 1656 1613 
L 1656 0 
L 538 0 
L 538 3500 
L 1656 3500 
L 1656 2925 
Q 1872 3269 2151 3426 
Q 2431 3584 2822 3584 
Q 2878 3584 2943 3579 
Q 3009 3575 3134 3559 
L 3138 2547 
z
" transform="scale(0.015625)"/>
       <path id="DejaVuSans-Bold-61" d="M 2106 1575 
Q 1756 1575 1579 1456 
Q 1403 1338 1403 1106 
Q 1403 894 1545 773 
Q 1688 653 1941 653 
Q 2256 653 2472 879 
Q 2688 1106 2688 1447 
L 2688 1575 
L 2106 1575 
z
M 3816 1997 
L 3816 0 
L 2688 0 
L 2688 519 
Q 2463 200 2181 54 
Q 1900 -91 1497 -91 
Q 953 -91 614 226 
Q 275 544 275 1050 
Q 275 1666 698 1953 
Q 1122 2241 2028 2241 
L 2688 2241 
L 2688 2328 
Q 2688 2594 2478 2717 
Q 2269 2841 1825 2841 
Q 1466 2841 1156 2769 
Q 847 2697 581 2553 
L 581 3406 
Q 941 3494 1303 3539 
Q 1666 3584 2028 3584 
Q 2975 3584 3395 3211 
Q 3816 2838 3816 1997 
z
" transform="scale(0.015625)"/>
       <path id="DejaVuSans-Bold-69" d="M 538 3500 
L 1656 3500 
L 1656 0 
L 538 0 
L 538 3500 
z
M 538 4863 
L 1656 4863 
L 1656 3950 
L 538 3950 
L 538 4863 
z
" transform="scale(0.015625)"/>
       <path id="DejaVuSans-Bold-6e" d="M 4056 2131 
L 4056 0 
L 2931 0 
L 2931 347 
L 2931 1631 
Q 2931 2084 2911 2256 
Q 2891 2428 2841 2509 
Q 2775 2619 2662 2680 
Q 2550 2741 2406 2741 
Q 2056 2741 1856 2470 
Q 1656 2200 1656 1722 
L 1656 0 
L 538 0 
L 538 3500 
L 1656 3500 
L 1656 2988 
Q 1909 3294 2193 3439 
Q 2478 3584 2822 3584 
Q 3428 3584 3742 3212 
Q 4056 2841 4056 2131 
z
" transform="scale(0.015625)"/>
       <path id="DejaVuSans-Bold-20" transform="scale(0.015625)"/>
       <path id="DejaVuSans-Bold-4e" d="M 588 4666 
L 1931 4666 
L 3628 1466 
L 3628 4666 
L 4769 4666 
L 4769 0 
L 3425 0 
L 1728 3200 
L 1728 0 
L 588 0 
L 588 4666 
z
" transform="scale(0.015625)"/>
       <path id="DejaVuSans-Bold-65" d="M 4031 1759 
L 4031 1441 
L 1416 1441 
Q 1456 1047 1700 850 
Q 1944 653 2381 653 
Q 2734 653 3104 758 
Q 3475 863 3866 1075 
L 3866 213 
Q 3469 63 3072 -14 
Q 2675 -91 2278 -91 
Q 1328 -91 801 392 
Q 275 875 275 1747 
Q 275 2603 792 3093 
Q 1309 3584 2216 3584 
Q 3041 3584 3536 3087 
Q 4031 2591 4031 1759 
z
M 2881 2131 
Q 2881 2450 2695 2645 
Q 2509 2841 2209 2841 
Q 1884 2841 1681 2658 
Q 1478 2475 1428 2131 
L 2881 2131 
z
" transform="scale(0.015625)"/>
       <path id="DejaVuSans-Bold-74" d="M 1759 4494 
L 1759 3500 
L 2913 3500 
L 2913 2700 
L 1759 2700 
L 1759 1216 
Q 1759 972 1856 886 
Q 1953 800 2241 800 
L 2816 800 
L 2816 0 
L 1856 0 
Q 1194 0 917 276 
Q 641 553 641 1216 
L 641 2700 
L 84 2700 
L 84 3500 
L 641 3500 
L 641 4494 
L 1759 4494 
z
" transform="scale(0.015625)"/>
       <path id="DejaVuSans-Bold-77" d="M 225 3500 
L 1313 3500 
L 1900 1088 
L 2491 3500 
L 3425 3500 
L 4013 1113 
L 4603 3500 
L 5691 3500 
L 4769 0 
L 3547 0 
L 2956 2406 
L 2369 0 
L 1147 0 
L 225 3500 
z
" transform="scale(0.015625)"/>
       <path id="DejaVuSans-Bold-6f" d="M 2203 2784 
Q 1831 2784 1636 2517 
Q 1441 2250 1441 1747 
Q 1441 1244 1636 976 
Q 1831 709 2203 709 
Q 2569 709 2762 976 
Q 2956 1244 2956 1747 
Q 2956 2250 2762 2517 
Q 2569 2784 2203 2784 
z
M 2203 3584 
Q 3106 3584 3614 3096 
Q 4122 2609 4122 1747 
Q 4122 884 3614 396 
Q 3106 -91 2203 -91 
Q 1297 -91 786 396 
Q 275 884 275 1747 
Q 275 2609 786 3096 
Q 1297 3584 2203 3584 
z
" transform="scale(0.015625)"/>
       <path id="DejaVuSans-Bold-6b" d="M 538 4863 
L 1656 4863 
L 1656 2216 
L 2944 3500 
L 4244 3500 
L 2534 1894 
L 4378 0 
L 3022 0 
L 1656 1459 
L 1656 0 
L 538 0 
L 538 4863 
z
" transform="scale(0.015625)"/>
      </defs>
      <use xlink:href="#DejaVuSans-Bold-42"/>
      <use xlink:href="#DejaVuSans-Bold-72" x="76.220703"/>
      <use xlink:href="#DejaVuSans-Bold-61" x="125.537109"/>
      <use xlink:href="#DejaVuSans-Bold-69" x="193.017578"/>
      <use xlink:href="#DejaVuSans-Bold-6e" x="227.294922"/>
      <use xlink:href="#DejaVuSans-Bold-20" x="298.486328"/>
      <use xlink:href="#DejaVuSans-Bold-4e" x="333.300781"/>
      <use xlink:href="#DejaVuSans-Bold-65" x="416.992188"/>
      <use xlink:href="#DejaVuSans-Bold-74" x="484.814453"/>
      <use xlink:href="#DejaVuSans-Bold-77" x="532.617188"/>
      <use xlink:href="#DejaVuSans-Bold-6f" x="625"/>
      <use xlink:href="#DejaVuSans-Bold-72" x="693.701172"/>
      <use xlink:href="#DejaVuSans-Bold-6b" x="743.017578"/>
     </g>
    </g>
   </g>
   <g id="matplotlib.axis_2">
    <g id="ytick_1">
     <g id="line2d_8">
      <path d="M 39.744688 376.767831 
L 321.931942 376.767831 
" clip-path="url(#p9ac76117c8)" style="fill: none; stroke: #cccccc; stroke-opacity: 0.3; stroke-width: 0.8; stroke-linecap: round"/>
     </g>
     <g id="line2d_9"/>
     <g id="text_9">
      <!-- 0.0 -->
      <g style="fill: #262626" transform="translate(21.931875 380.187128) scale(0.09 -0.09)">
       <defs>
        <path id="DejaVuSans-30" d="M 2034 4250 
Q 1547 4250 1301 3770 
Q 1056 3291 1056 2328 
Q 1056 1369 1301 889 
Q 1547 409 2034 409 
Q 2525 409 2770 889 
Q 3016 1369 3016 2328 
Q 3016 3291 2770 3770 
Q 2525 4250 2034 4250 
z
M 2034 4750 
Q 2819 4750 3233 4129 
Q 3647 3509 3647 2328 
Q 3647 1150 3233 529 
Q 2819 -91 2034 -91 
Q 1250 -91 836 529 
Q 422 1150 422 2328 
Q 422 3509 836 4129 
Q 1250 4750 2034 4750 
z
" transform="scale(0.015625)"/>
        <path id="DejaVuSans-2e" d="M 684 794 
L 1344 794 
L 1344 0 
L 684 0 
L 684 794 
z
" transform="scale(0.015625)"/>
       </defs>
       <use xlink:href="#DejaVuSans-30"/>
       <use xlink:href="#DejaVuSans-2e" x="63.623047"/>
       <use xlink:href="#DejaVuSans-30" x="95.410156"/>
      </g>
     </g>
    </g>
    <g id="ytick_2">
     <g id="line2d_10">
      <path d="M 39.744688 327.475465 
L 321.931942 327.475465 
" clip-path="url(#p9ac76117c8)" style="fill: none; stroke: #cccccc; stroke-opacity: 0.3; stroke-width: 0.8; stroke-linecap: round"/>
     </g>
     <g id="line2d_11"/>
     <g id="text_10">
      <!-- 0.1 -->
      <g style="fill: #262626" transform="translate(21.931875 330.894761) scale(0.09 -0.09)">
       <defs>
        <path id="DejaVuSans-31" d="M 794 531 
L 1825 531 
L 1825 4091 
L 703 3866 
L 703 4441 
L 1819 4666 
L 2450 4666 
L 2450 531 
L 3481 531 
L 3481 0 
L 794 0 
L 794 531 
z
" transform="scale(0.015625)"/>
       </defs>
       <use xlink:href="#DejaVuSans-30"/>
       <use xlink:href="#DejaVuSans-2e" x="63.623047"/>
       <use xlink:href="#DejaVuSans-31" x="95.410156"/>
      </g>
     </g>
    </g>
    <g id="ytick_3">
     <g id="line2d_12">
      <path d="M 39.744688 278.183098 
L 321.931942 278.183098 
" clip-path="url(#p9ac76117c8)" style="fill: none; stroke: #cccccc; stroke-opacity: 0.3; stroke-width: 0.8; stroke-linecap: round"/>
     </g>
     <g id="line2d_13"/>
     <g id="text_11">
      <!-- 0.2 -->
      <g style="fill: #262626" transform="translate(21.931875 281.602395) scale(0.09 -0.09)">
       <defs>
        <path id="DejaVuSans-32" d="M 1228 531 
L 3431 531 
L 3431 0 
L 469 0 
L 469 531 
Q 828 903 1448 1529 
Q 2069 2156 2228 2338 
Q 2531 2678 2651 2914 
Q 2772 3150 2772 3378 
Q 2772 3750 2511 3984 
Q 2250 4219 1831 4219 
Q 1534 4219 1204 4116 
Q 875 4013 500 3803 
L 500 4441 
Q 881 4594 1212 4672 
Q 1544 4750 1819 4750 
Q 2544 4750 2975 4387 
Q 3406 4025 3406 3419 
Q 3406 3131 3298 2873 
Q 3191 2616 2906 2266 
Q 2828 2175 2409 1742 
Q 1991 1309 1228 531 
z
" transform="scale(0.015625)"/>
       </defs>
       <use xlink:href="#DejaVuSans-30"/>
       <use xlink:href="#DejaVuSans-2e" x="63.623047"/>
       <use xlink:href="#DejaVuSans-32" x="95.410156"/>
      </g>
     </g>
    </g>
    <g id="ytick_4">
     <g id="line2d_14">
      <path d="M 39.744688 228.890731 
L 321.931942 228.890731 
" clip-path="url(#p9ac76117c8)" style="fill: none; stroke: #cccccc; stroke-opacity: 0.3; stroke-width: 0.8; stroke-linecap: round"/>
     </g>
     <g id="line2d_15"/>
     <g id="text_12">
      <!-- 0.3 -->
      <g style="fill: #262626" transform="translate(21.931875 232.310028) scale(0.09 -0.09)">
       <defs>
        <path id="DejaVuSans-33" d="M 2597 2516 
Q 3050 2419 3304 2112 
Q 3559 1806 3559 1356 
Q 3559 666 3084 287 
Q 2609 -91 1734 -91 
Q 1441 -91 1130 -33 
Q 819 25 488 141 
L 488 750 
Q 750 597 1062 519 
Q 1375 441 1716 441 
Q 2309 441 2620 675 
Q 2931 909 2931 1356 
Q 2931 1769 2642 2001 
Q 2353 2234 1838 2234 
L 1294 2234 
L 1294 2753 
L 1863 2753 
Q 2328 2753 2575 2939 
Q 2822 3125 2822 3475 
Q 2822 3834 2567 4026 
Q 2313 4219 1838 4219 
Q 1578 4219 1281 4162 
Q 984 4106 628 3988 
L 628 4550 
Q 988 4650 1302 4700 
Q 1616 4750 1894 4750 
Q 2613 4750 3031 4423 
Q 3450 4097 3450 3541 
Q 3450 3153 3228 2886 
Q 3006 2619 2597 2516 
z
" transform="scale(0.015625)"/>
       </defs>
       <use xlink:href="#DejaVuSans-30"/>
       <use xlink:href="#DejaVuSans-2e" x="63.623047"/>
       <use xlink:href="#DejaVuSans-33" x="95.410156"/>
      </g>
     </g>
    </g>
    <g id="ytick_5">
     <g id="line2d_16">
      <path d="M 39.744688 179.598365 
L 321.931942 179.598365 
" clip-path="url(#p9ac76117c8)" style="fill: none; stroke: #cccccc; stroke-opacity: 0.3; stroke-width: 0.8; stroke-linecap: round"/>
     </g>
     <g id="line2d_17"/>
     <g id="text_13">
      <!-- 0.4 -->
      <g style="fill: #262626" transform="translate(21.931875 183.017661) scale(0.09 -0.09)">
       <defs>
        <path id="DejaVuSans-34" d="M 2419 4116 
L 825 1625 
L 2419 1625 
L 2419 4116 
z
M 2253 4666 
L 3047 4666 
L 3047 1625 
L 3713 1625 
L 3713 1100 
L 3047 1100 
L 3047 0 
L 2419 0 
L 2419 1100 
L 313 1100 
L 313 1709 
L 2253 4666 
z
" transform="scale(0.015625)"/>
       </defs>
       <use xlink:href="#DejaVuSans-30"/>
       <use xlink:href="#DejaVuSans-2e" x="63.623047"/>
       <use xlink:href="#DejaVuSans-34" x="95.410156"/>
      </g>
     </g>
    </g>
    <g id="ytick_6">
     <g id="line2d_18">
      <path d="M 39.744688 130.305998 
L 321.931942 130.305998 
" clip-path="url(#p9ac76117c8)" style="fill: none; stroke: #cccccc; stroke-opacity: 0.3; stroke-width: 0.8; stroke-linecap: round"/>
     </g>
     <g id="line2d_19"/>
     <g id="text_14">
      <!-- 0.5 -->
      <g style="fill: #262626" transform="translate(21.931875 133.725295) scale(0.09 -0.09)">
       <defs>
        <path id="DejaVuSans-35" d="M 691 4666 
L 3169 4666 
L 3169 4134 
L 1269 4134 
L 1269 2991 
Q 1406 3038 1543 3061 
Q 1681 3084 1819 3084 
Q 2600 3084 3056 2656 
Q 3513 2228 3513 1497 
Q 3513 744 3044 326 
Q 2575 -91 1722 -91 
Q 1428 -91 1123 -41 
Q 819 9 494 109 
L 494 744 
Q 775 591 1075 516 
Q 1375 441 1709 441 
Q 2250 441 2565 725 
Q 2881 1009 2881 1497 
Q 2881 1984 2565 2268 
Q 2250 2553 1709 2553 
Q 1456 2553 1204 2497 
Q 953 2441 691 2322 
L 691 4666 
z
" transform="scale(0.015625)"/>
       </defs>
       <use xlink:href="#DejaVuSans-30"/>
       <use xlink:href="#DejaVuSans-2e" x="63.623047"/>
       <use xlink:href="#DejaVuSans-35" x="95.410156"/>
      </g>
     </g>
    </g>
    <g id="ytick_7">
     <g id="line2d_20">
      <path d="M 39.744688 81.013631 
L 321.931942 81.013631 
" clip-path="url(#p9ac76117c8)" style="fill: none; stroke: #cccccc; stroke-opacity: 0.3; stroke-width: 0.8; stroke-linecap: round"/>
     </g>
     <g id="line2d_21"/>
     <g id="text_15">
      <!-- 0.6 -->
      <g style="fill: #262626" transform="translate(21.931875 84.432928) scale(0.09 -0.09)">
       <defs>
        <path id="DejaVuSans-36" d="M 2113 2584 
Q 1688 2584 1439 2293 
Q 1191 2003 1191 1497 
Q 1191 994 1439 701 
Q 1688 409 2113 409 
Q 2538 409 2786 701 
Q 3034 994 3034 1497 
Q 3034 2003 2786 2293 
Q 2538 2584 2113 2584 
z
M 3366 4563 
L 3366 3988 
Q 3128 4100 2886 4159 
Q 2644 4219 2406 4219 
Q 1781 4219 1451 3797 
Q 1122 3375 1075 2522 
Q 1259 2794 1537 2939 
Q 1816 3084 2150 3084 
Q 2853 3084 3261 2657 
Q 3669 2231 3669 1497 
Q 3669 778 3244 343 
Q 2819 -91 2113 -91 
Q 1303 -91 875 529 
Q 447 1150 447 2328 
Q 447 3434 972 4092 
Q 1497 4750 2381 4750 
Q 2619 4750 2861 4703 
Q 3103 4656 3366 4563 
z
" transform="scale(0.015625)"/>
       </defs>
       <use xlink:href="#DejaVuSans-30"/>
       <use xlink:href="#DejaVuSans-2e" x="63.623047"/>
       <use xlink:href="#DejaVuSans-36" x="95.410156"/>
      </g>
     </g>
    </g>
    <g id="text_16">
     <!-- Encoding Accuracy (r) -->
     <g style="fill: #262626" transform="translate(15.558281 281.261181) rotate(-90) scale(0.11 -0.11)">
      <defs>
       <path id="DejaVuSans-Bold-45" d="M 588 4666 
L 3834 4666 
L 3834 3756 
L 1791 3756 
L 1791 2888 
L 3713 2888 
L 3713 1978 
L 1791 1978 
L 1791 909 
L 3903 909 
L 3903 0 
L 588 0 
L 588 4666 
z
" transform="scale(0.015625)"/>
       <path id="DejaVuSans-Bold-63" d="M 3366 3391 
L 3366 2478 
Q 3138 2634 2908 2709 
Q 2678 2784 2431 2784 
Q 1963 2784 1702 2511 
Q 1441 2238 1441 1747 
Q 1441 1256 1702 982 
Q 1963 709 2431 709 
Q 2694 709 2930 787 
Q 3166 866 3366 1019 
L 3366 103 
Q 3103 6 2833 -42 
Q 2563 -91 2291 -91 
Q 1344 -91 809 395 
Q 275 881 275 1747 
Q 275 2613 809 3098 
Q 1344 3584 2291 3584 
Q 2566 3584 2833 3536 
Q 3100 3488 3366 3391 
z
" transform="scale(0.015625)"/>
       <path id="DejaVuSans-Bold-64" d="M 2919 2988 
L 2919 4863 
L 4044 4863 
L 4044 0 
L 2919 0 
L 2919 506 
Q 2688 197 2409 53 
Q 2131 -91 1766 -91 
Q 1119 -91 703 423 
Q 288 938 288 1747 
Q 288 2556 703 3070 
Q 1119 3584 1766 3584 
Q 2128 3584 2408 3439 
Q 2688 3294 2919 2988 
z
M 2181 722 
Q 2541 722 2730 984 
Q 2919 1247 2919 1747 
Q 2919 2247 2730 2509 
Q 2541 2772 2181 2772 
Q 1825 2772 1636 2509 
Q 1447 2247 1447 1747 
Q 1447 1247 1636 984 
Q 1825 722 2181 722 
z
" transform="scale(0.015625)"/>
       <path id="DejaVuSans-Bold-67" d="M 2919 594 
Q 2688 288 2409 144 
Q 2131 0 1766 0 
Q 1125 0 706 504 
Q 288 1009 288 1791 
Q 288 2575 706 3076 
Q 1125 3578 1766 3578 
Q 2131 3578 2409 3434 
Q 2688 3291 2919 2981 
L 2919 3500 
L 4044 3500 
L 4044 353 
Q 4044 -491 3511 -936 
Q 2978 -1381 1966 -1381 
Q 1638 -1381 1331 -1331 
Q 1025 -1281 716 -1178 
L 716 -306 
Q 1009 -475 1290 -558 
Q 1572 -641 1856 -641 
Q 2406 -641 2662 -400 
Q 2919 -159 2919 353 
L 2919 594 
z
M 2181 2772 
Q 1834 2772 1640 2515 
Q 1447 2259 1447 1791 
Q 1447 1309 1634 1061 
Q 1822 813 2181 813 
Q 2531 813 2725 1069 
Q 2919 1325 2919 1791 
Q 2919 2259 2725 2515 
Q 2531 2772 2181 2772 
z
" transform="scale(0.015625)"/>
       <path id="DejaVuSans-Bold-41" d="M 3419 850 
L 1538 850 
L 1241 0 
L 31 0 
L 1759 4666 
L 3194 4666 
L 4922 0 
L 3713 0 
L 3419 850 
z
M 1838 1716 
L 3116 1716 
L 2478 3572 
L 1838 1716 
z
" transform="scale(0.015625)"/>
       <path id="DejaVuSans-Bold-75" d="M 500 1363 
L 500 3500 
L 1625 3500 
L 1625 3150 
Q 1625 2866 1622 2436 
Q 1619 2006 1619 1863 
Q 1619 1441 1641 1255 
Q 1663 1069 1716 984 
Q 1784 875 1895 815 
Q 2006 756 2150 756 
Q 2500 756 2700 1025 
Q 2900 1294 2900 1772 
L 2900 3500 
L 4019 3500 
L 4019 0 
L 2900 0 
L 2900 506 
Q 2647 200 2364 54 
Q 2081 -91 1741 -91 
Q 1134 -91 817 281 
Q 500 653 500 1363 
z
" transform="scale(0.015625)"/>
       <path id="DejaVuSans-Bold-79" d="M 78 3500 
L 1197 3500 
L 2138 1125 
L 2938 3500 
L 4056 3500 
L 2584 -331 
Q 2363 -916 2067 -1148 
Q 1772 -1381 1288 -1381 
L 641 -1381 
L 641 -647 
L 991 -647 
Q 1275 -647 1404 -556 
Q 1534 -466 1606 -231 
L 1638 -134 
L 78 3500 
z
" transform="scale(0.015625)"/>
       <path id="DejaVuSans-Bold-28" d="M 2413 -844 
L 1484 -844 
Q 1006 -72 778 623 
Q 550 1319 550 2003 
Q 550 2688 779 3389 
Q 1009 4091 1484 4856 
L 2413 4856 
Q 2013 4116 1813 3408 
Q 1613 2700 1613 2009 
Q 1613 1319 1811 609 
Q 2009 -100 2413 -844 
z
" transform="scale(0.015625)"/>
       <path id="DejaVuSans-Bold-29" d="M 513 -844 
Q 913 -100 1113 609 
Q 1313 1319 1313 2009 
Q 1313 2700 1113 3408 
Q 913 4116 513 4856 
L 1441 4856 
Q 1916 4091 2145 3389 
Q 2375 2688 2375 2003 
Q 2375 1319 2147 623 
Q 1919 -72 1441 -844 
L 513 -844 
z
" transform="scale(0.015625)"/>
      </defs>
      <use xlink:href="#DejaVuSans-Bold-45"/>
      <use xlink:href="#DejaVuSans-Bold-6e" x="68.310547"/>
      <use xlink:href="#DejaVuSans-Bold-63" x="139.501953"/>
      <use xlink:href="#DejaVuSans-Bold-6f" x="198.779297"/>
      <use xlink:href="#DejaVuSans-Bold-64" x="267.480469"/>
      <use xlink:href="#DejaVuSans-Bold-69" x="339.0625"/>
      <use xlink:href="#DejaVuSans-Bold-6e" x="373.339844"/>
      <use xlink:href="#DejaVuSans-Bold-67" x="444.53125"/>
      <use xlink:href="#DejaVuSans-Bold-20" x="516.113281"/>
      <use xlink:href="#DejaVuSans-Bold-41" x="550.927734"/>
      <use xlink:href="#DejaVuSans-Bold-63" x="628.320312"/>
      <use xlink:href="#DejaVuSans-Bold-63" x="687.597656"/>
      <use xlink:href="#DejaVuSans-Bold-75" x="746.875"/>
      <use xlink:href="#DejaVuSans-Bold-72" x="818.066406"/>
      <use xlink:href="#DejaVuSans-Bold-61" x="867.382812"/>
      <use xlink:href="#DejaVuSans-Bold-63" x="934.863281"/>
      <use xlink:href="#DejaVuSans-Bold-79" x="994.140625"/>
      <use xlink:href="#DejaVuSans-Bold-20" x="1059.326172"/>
      <use xlink:href="#DejaVuSans-Bold-28" x="1094.140625"/>
      <use xlink:href="#DejaVuSans-Bold-72" x="1139.84375"/>
      <use xlink:href="#DejaVuSans-Bold-29" x="1189.160156"/>
     </g>
    </g>
   </g>
   <g id="patch_3">
    <path d="M 52.571381 376.767831 
L 65.972404 376.767831 
L 65.972404 220.576257 
L 52.571381 220.576257 
z
" clip-path="url(#p9ac76117c8)" style="fill: #3498db; opacity: 0.8"/>
   </g>
   <g id="patch_4">
    <path d="M 90.860018 376.767831 
L 104.261041 376.767831 
L 104.261041 215.728625 
L 90.860018 215.728625 
z
" clip-path="url(#p9ac76117c8)" style="fill: #3498db; opacity: 0.8"/>
   </g>
   <g id="patch_5">
    <path d="M 129.148655 376.767831 
L 142.549678 376.767831 
L 142.549678 236.505406 
L 129.148655 236.505406 
z
" clip-path="url(#p9ac76117c8)" style="fill: #3498db; opacity: 0.8"/>
   </g>
   <g id="patch_6">
    <path d="M 167.437292 376.767831 
L 180.838315 376.767831 
L 180.838315 168.250069 
L 167.437292 168.250069 
z
" clip-path="url(#p9ac76117c8)" style="fill: #3498db; opacity: 0.8"/>
   </g>
   <g id="patch_7">
    <path d="M 205.725929 376.767831 
L 219.126952 376.767831 
L 219.126952 226.240562 
L 205.725929 226.240562 
z
" clip-path="url(#p9ac76117c8)" style="fill: #3498db; opacity: 0.8"/>
   </g>
   <g id="patch_8">
    <path d="M 244.014566 376.767831 
L 257.415589 376.767831 
L 257.415589 240.24492 
L 244.014566 240.24492 
z
" clip-path="url(#p9ac76117c8)" style="fill: #3498db; opacity: 0.8"/>
   </g>
   <g id="patch_9">
    <path d="M 282.303203 376.767831 
L 295.704226 376.767831 
L 295.704226 186.488341 
L 282.303203 186.488341 
z
" clip-path="url(#p9ac76117c8)" style="fill: #3498db; opacity: 0.8"/>
   </g>
   <g id="patch_10">
    <path d="M 65.972404 376.767831 
L 79.373427 376.767831 
L 79.373427 134.064033 
L 65.972404 134.064033 
z
" clip-path="url(#p9ac76117c8)" style="fill: #e74c3c; opacity: 0.8"/>
   </g>
   <g id="patch_11">
    <path d="M 104.261041 376.767831 
L 117.662064 376.767831 
L 117.662064 123.349509 
L 104.261041 123.349509 
z
" clip-path="url(#p9ac76117c8)" style="fill: #e74c3c; opacity: 0.8"/>
   </g>
   <g id="patch_12">
    <path d="M 142.549678 376.767831 
L 155.950701 376.767831 
L 155.950701 167.144891 
L 142.549678 167.144891 
z
" clip-path="url(#p9ac76117c8)" style="fill: #e74c3c; opacity: 0.8"/>
   </g>
   <g id="patch_13">
    <path d="M 180.838315 376.767831 
L 194.239338 376.767831 
L 194.239338 65.484182 
L 180.838315 65.484182 
z
" clip-path="url(#p9ac76117c8)" style="fill: #e74c3c; opacity: 0.8"/>
   </g>
   <g id="patch_14">
    <path d="M 219.126952 376.767831 
L 232.527975 376.767831 
L 232.527975 152.094232 
L 219.126952 152.094232 
z
" clip-path="url(#p9ac76117c8)" style="fill: #e74c3c; opacity: 0.8"/>
   </g>
   <g id="patch_15">
    <path d="M 257.415589 376.767831 
L 270.816612 376.767831 
L 270.816612 175.453599 
L 257.415589 175.453599 
z
" clip-path="url(#p9ac76117c8)" style="fill: #e74c3c; opacity: 0.8"/>
   </g>
   <g id="patch_16">
    <path d="M 295.704226 376.767831 
L 309.105249 376.767831 
L 309.105249 89.736702 
L 295.704226 89.736702 
z
" clip-path="url(#p9ac76117c8)" style="fill: #e74c3c; opacity: 0.8"/>
   </g>
   <g id="patch_17">
    <path d="M 39.744688 376.767831 
L 39.744688 49.92 
" style="fill: none; stroke: #262626; stroke-width: 1.25; stroke-linejoin: miter; stroke-linecap: square"/>
   </g>
   <g id="patch_18">
    <path d="M 39.744687 376.767831 
L 321.931942 376.767831 
" style="fill: none; stroke: #262626; stroke-width: 1.25; stroke-linejoin: miter; stroke-linecap: square"/>
   </g>
   <g id="text_17">
    <!-- A. Model Comparison -->
    <g style="fill: #262626" transform="translate(39.744688 43.92) scale(0.12 -0.12)">
     <defs>
      <path id="DejaVuSans-Bold-2e" d="M 653 1209 
L 1778 1209 
L 1778 0 
L 653 0 
L 653 1209 
z
" transform="scale(0.015625)"/>
      <path id="DejaVuSans-Bold-4d" d="M 588 4666 
L 2119 4666 
L 3181 2169 
L 4250 4666 
L 5778 4666 
L 5778 0 
L 4641 0 
L 4641 3413 
L 3566 897 
L 2803 897 
L 1728 3413 
L 1728 0 
L 588 0 
L 588 4666 
z
" transform="scale(0.015625)"/>
      <path id="DejaVuSans-Bold-6c" d="M 538 4863 
L 1656 4863 
L 1656 0 
L 538 0 
L 538 4863 
z
" transform="scale(0.015625)"/>
      <path id="DejaVuSans-Bold-43" d="M 4288 256 
Q 3956 84 3597 -3 
Q 3238 -91 2847 -91 
Q 1681 -91 1000 561 
Q 319 1213 319 2328 
Q 319 3447 1000 4098 
Q 1681 4750 2847 4750 
Q 3238 4750 3597 4662 
Q 3956 4575 4288 4403 
L 4288 3438 
Q 3953 3666 3628 3772 
Q 3303 3878 2944 3878 
Q 2300 3878 1931 3465 
Q 1563 3053 1563 2328 
Q 1563 1606 1931 1193 
Q 2300 781 2944 781 
Q 3303 781 3628 887 
Q 3953 994 4288 1222 
L 4288 256 
z
" transform="scale(0.015625)"/>
      <path id="DejaVuSans-Bold-6d" d="M 3781 2919 
Q 3994 3244 4286 3414 
Q 4578 3584 4928 3584 
Q 5531 3584 5847 3212 
Q 6163 2841 6163 2131 
L 6163 0 
L 5038 0 
L 5038 1825 
Q 5041 1866 5042 1909 
Q 5044 1953 5044 2034 
Q 5044 2406 4934 2573 
Q 4825 2741 4581 2741 
Q 4263 2741 4089 2478 
Q 3916 2216 3909 1719 
L 3909 0 
L 2784 0 
L 2784 1825 
Q 2784 2406 2684 2573 
Q 2584 2741 2328 2741 
Q 2006 2741 1831 2477 
Q 1656 2213 1656 1722 
L 1656 0 
L 531 0 
L 531 3500 
L 1656 3500 
L 1656 2988 
Q 1863 3284 2130 3434 
Q 2397 3584 2719 3584 
Q 3081 3584 3359 3409 
Q 3638 3234 3781 2919 
z
" transform="scale(0.015625)"/>
      <path id="DejaVuSans-Bold-70" d="M 1656 506 
L 1656 -1331 
L 538 -1331 
L 538 3500 
L 1656 3500 
L 1656 2988 
Q 1888 3294 2169 3439 
Q 2450 3584 2816 3584 
Q 3463 3584 3878 3070 
Q 4294 2556 4294 1747 
Q 4294 938 3878 423 
Q 3463 -91 2816 -91 
Q 2450 -91 2169 54 
Q 1888 200 1656 506 
z
M 2400 2772 
Q 2041 2772 1848 2508 
Q 1656 2244 1656 1747 
Q 1656 1250 1848 986 
Q 2041 722 2400 722 
Q 2759 722 2948 984 
Q 3138 1247 3138 1747 
Q 3138 2247 2948 2509 
Q 2759 2772 2400 2772 
z
" transform="scale(0.015625)"/>
      <path id="DejaVuSans-Bold-73" d="M 3272 3391 
L 3272 2541 
Q 2913 2691 2578 2766 
Q 2244 2841 1947 2841 
Q 1628 2841 1473 2761 
Q 1319 2681 1319 2516 
Q 1319 2381 1436 2309 
Q 1553 2238 1856 2203 
L 2053 2175 
Q 2913 2066 3209 1816 
Q 3506 1566 3506 1031 
Q 3506 472 3093 190 
Q 2681 -91 1863 -91 
Q 1516 -91 1145 -36 
Q 775 19 384 128 
L 384 978 
Q 719 816 1070 734 
Q 1422 653 1784 653 
Q 2113 653 2278 743 
Q 2444 834 2444 1013 
Q 2444 1163 2330 1236 
Q 2216 1309 1875 1350 
L 1678 1375 
Q 931 1469 631 1722 
Q 331 1975 331 2491 
Q 331 3047 712 3315 
Q 1094 3584 1881 3584 
Q 2191 3584 2531 3537 
Q 2872 3491 3272 3391 
z
" transform="scale(0.015625)"/>
     </defs>
     <use xlink:href="#DejaVuSans-Bold-41"/>
     <use xlink:href="#DejaVuSans-Bold-2e" x="79.267578"/>
     <use xlink:href="#DejaVuSans-Bold-20" x="117.255859"/>
     <use xlink:href="#DejaVuSans-Bold-4d" x="152.070312"/>
     <use xlink:href="#DejaVuSans-Bold-6f" x="251.582031"/>
     <use xlink:href="#DejaVuSans-Bold-64" x="320.283203"/>
     <use xlink:href="#DejaVuSans-Bold-65" x="391.865234"/>
     <use xlink:href="#DejaVuSans-Bold-6c" x="459.6875"/>
     <use xlink:href="#DejaVuSans-Bold-20" x="493.964844"/>
     <use xlink:href="#DejaVuSans-Bold-43" x="528.779297"/>
     <use xlink:href="#DejaVuSans-Bold-6f" x="602.167969"/>
     <use xlink:href="#DejaVuSans-Bold-6d" x="670.869141"/>
     <use xlink:href="#DejaVuSans-Bold-70" x="775.068359"/>
     <use xlink:href="#DejaVuSans-Bold-61" x="846.650391"/>
     <use xlink:href="#DejaVuSans-Bold-72" x="914.130859"/>
     <use xlink:href="#DejaVuSans-Bold-69" x="963.447266"/>
     <use xlink:href="#DejaVuSans-Bold-73" x="997.724609"/>
     <use xlink:href="#DejaVuSans-Bold-6f" x="1057.246094"/>
     <use xlink:href="#DejaVuSans-Bold-6e" x="1125.947266"/>
    </g>
   </g>
   <g id="legend_1">
    <g id="patch_19">
     <path d="M 262.913036 64.858594 
L 280.913036 64.858594 
L 280.913036 58.558594 
L 262.913036 58.558594 
z
" style="fill: #3498db; opacity: 0.8"/>
    </g>
    <g id="text_18">
     <!-- Ridge -->
     <g style="fill: #262626" transform="translate(288.113036 64.858594) scale(0.09 -0.09)">
      <defs>
       <path id="DejaVuSans-52" d="M 2841 2188 
Q 3044 2119 3236 1894 
Q 3428 1669 3622 1275 
L 4263 0 
L 3584 0 
L 2988 1197 
Q 2756 1666 2539 1819 
Q 2322 1972 1947 1972 
L 1259 1972 
L 1259 0 
L 628 0 
L 628 4666 
L 2053 4666 
Q 2853 4666 3247 4331 
Q 3641 3997 3641 3322 
Q 3641 2881 3436 2590 
Q 3231 2300 2841 2188 
z
M 1259 4147 
L 1259 2491 
L 2053 2491 
Q 2509 2491 2742 2702 
Q 2975 2913 2975 3322 
Q 2975 3731 2742 3939 
Q 2509 4147 2053 4147 
L 1259 4147 
z
" transform="scale(0.015625)"/>
       <path id="DejaVuSans-64" d="M 2906 2969 
L 2906 4863 
L 3481 4863 
L 3481 0 
L 2906 0 
L 2906 525 
Q 2725 213 2448 61 
Q 2172 -91 1784 -91 
Q 1150 -91 751 415 
Q 353 922 353 1747 
Q 353 2572 751 3078 
Q 1150 3584 1784 3584 
Q 2172 3584 2448 3432 
Q 2725 3281 2906 2969 
z
M 947 1747 
Q 947 1113 1208 752 
Q 1469 391 1925 391 
Q 2381 391 2643 752 
Q 2906 1113 2906 1747 
Q 2906 2381 2643 2742 
Q 2381 3103 1925 3103 
Q 1469 3103 1208 2742 
Q 947 2381 947 1747 
z
" transform="scale(0.015625)"/>
       <path id="DejaVuSans-67" d="M 2906 1791 
Q 2906 2416 2648 2759 
Q 2391 3103 1925 3103 
Q 1463 3103 1205 2759 
Q 947 2416 947 1791 
Q 947 1169 1205 825 
Q 1463 481 1925 481 
Q 2391 481 2648 825 
Q 2906 1169 2906 1791 
z
M 3481 434 
Q 3481 -459 3084 -895 
Q 2688 -1331 1869 -1331 
Q 1566 -1331 1297 -1286 
Q 1028 -1241 775 -1147 
L 775 -588 
Q 1028 -725 1275 -790 
Q 1522 -856 1778 -856 
Q 2344 -856 2625 -561 
Q 2906 -266 2906 331 
L 2906 616 
Q 2728 306 2450 153 
Q 2172 0 1784 0 
Q 1141 0 747 490 
Q 353 981 353 1791 
Q 353 2603 747 3093 
Q 1141 3584 1784 3584 
Q 2172 3584 2450 3431 
Q 2728 3278 2906 2969 
L 2906 3500 
L 3481 3500 
L 3481 434 
z
" transform="scale(0.015625)"/>
      </defs>
      <use xlink:href="#DejaVuSans-52"/>
      <use xlink:href="#DejaVuSans-69" x="69.482422"/>
      <use xlink:href="#DejaVuSans-64" x="97.265625"/>
      <use xlink:href="#DejaVuSans-67" x="160.742188"/>
      <use xlink:href="#DejaVuSans-65" x="224.21875"/>
     </g>
    </g>
    <g id="patch_20">
     <path d="M 262.913036 78.068906 
L 280.913036 78.068906 
L 280.913036 71.768906 
L 262.913036 71.768906 
z
" style="fill: #e74c3c; opacity: 0.8"/>
    </g>
    <g id="text_19">
     <!-- LSTM -->
     <g style="fill: #262626" transform="translate(288.113036 78.068906) scale(0.09 -0.09)">
      <defs>
       <path id="DejaVuSans-54" d="M -19 4666 
L 3928 4666 
L 3928 4134 
L 2272 4134 
L 2272 0 
L 1638 0 
L 1638 4134 
L -19 4134 
L -19 4666 
z
" transform="scale(0.015625)"/>
       <path id="DejaVuSans-4d" d="M 628 4666 
L 1569 4666 
L 2759 1491 
L 3956 4666 
L 4897 4666 
L 4897 0 
L 4281 0 
L 4281 4097 
L 3078 897 
L 2444 897 
L 1241 4097 
L 1241 0 
L 628 0 
L 628 4666 
z
" transform="scale(0.015625)"/>
      </defs>
      <use xlink:href="#DejaVuSans-4c"/>
      <use xlink:href="#DejaVuSans-53" x="55.712891"/>
      <use xlink:href="#DejaVuSans-54" x="119.189453"/>
      <use xlink:href="#DejaVuSans-4d" x="180.273438"/>
     </g>
    </g>
   </g>
  </g>
  <g id="axes_2">
   <g id="patch_21">
    <path d="M 409.581942 376.767831 
L 691.769197 376.767831 
L 691.769197 49.92 
L 409.581942 49.92 
z
" style="fill: #ffffff"/>
   </g>
   <g id="matplotlib.axis_3">
    <g id="xtick_8">
     <g id="line2d_22">
      <path d="M 409.581942 376.767831 
L 409.581942 49.92 
" clip-path="url(#p46b645fde6)" style="fill: none; stroke: #cccccc; stroke-opacity: 0.3; stroke-width: 0.8; stroke-linecap: round"/>
     </g>
     <g id="line2d_23"/>
     <g id="text_20">
      <!-- 0 -->
      <g style="fill: #262626" transform="translate(406.718817 387.106425) scale(0.09 -0.09)">
       <use xlink:href="#DejaVuSans-30"/>
      </g>
     </g>
    </g>
    <g id="xtick_9">
     <g id="line2d_24">
      <path d="M 456.431545 376.767831 
L 456.431545 49.92 
" clip-path="url(#p46b645fde6)" style="fill: none; stroke: #cccccc; stroke-opacity: 0.3; stroke-width: 0.8; stroke-linecap: round"/>
     </g>
     <g id="line2d_25"/>
     <g id="text_21">
      <!-- 10 -->
      <g style="fill: #262626" transform="translate(450.705295 387.106425) scale(0.09 -0.09)">
       <use xlink:href="#DejaVuSans-31"/>
       <use xlink:href="#DejaVuSans-30" x="63.623047"/>
      </g>
     </g>
    </g>
    <g id="xtick_10">
     <g id="line2d_26">
      <path d="M 503.281148 376.767831 
L 503.281148 49.92 
" clip-path="url(#p46b645fde6)" style="fill: none; stroke: #cccccc; stroke-opacity: 0.3; stroke-width: 0.8; stroke-linecap: round"/>
     </g>
     <g id="line2d_27"/>
     <g id="text_22">
      <!-- 20 -->
      <g style="fill: #262626" transform="translate(497.554898 387.106425) scale(0.09 -0.09)">
       <use xlink:href="#DejaVuSans-32"/>
       <use xlink:href="#DejaVuSans-30" x="63.623047"/>
      </g>
     </g>
    </g>
    <g id="xtick_11">
     <g id="line2d_28">
      <path d="M 550.130751 376.767831 
L 550.130751 49.92 
" clip-path="url(#p46b645fde6)" style="fill: none; stroke: #cccccc; stroke-opacity: 0.3; stroke-width: 0.8; stroke-linecap: round"/>
     </g>
     <g id="line2d_29"/>
     <g id="text_23">
      <!-- 30 -->
      <g style="fill: #262626" transform="translate(544.404501 387.106425) scale(0.09 -0.09)">
       <use xlink:href="#DejaVuSans-33"/>
       <use xlink:href="#DejaVuSans-30" x="63.623047"/>
      </g>
     </g>
    </g>
    <g id="xtick_12">
     <g id="line2d_30">
      <path d="M 596.980354 376.767831 
L 596.980354 49.92 
" clip-path="url(#p46b645fde6)" style="fill: none; stroke: #cccccc; stroke-opacity: 0.3; stroke-width: 0.8; stroke-linecap: round"/>
     </g>
     <g id="line2d_31"/>
     <g id="text_24">
      <!-- 40 -->
      <g style="fill: #262626" transform="translate(591.254104 387.106425) scale(0.09 -0.09)">
       <use xlink:href="#DejaVuSans-34"/>
       <use xlink:href="#DejaVuSans-30" x="63.623047"/>
      </g>
     </g>
    </g>
    <g id="xtick_13">
     <g id="line2d_32">
      <path d="M 643.829957 376.767831 
L 643.829957 49.92 
" clip-path="url(#p46b645fde6)" style="fill: none; stroke: #cccccc; stroke-opacity: 0.3; stroke-width: 0.8; stroke-linecap: round"/>
     </g>
     <g id="line2d_33"/>
     <g id="text_25">
      <!-- 50 -->
      <g style="fill: #262626" transform="translate(638.103707 387.106425) scale(0.09 -0.09)">
       <use xlink:href="#DejaVuSans-35"/>
       <use xlink:href="#DejaVuSans-30" x="63.623047"/>
      </g>
     </g>
    </g>
    <g id="xtick_14">
     <g id="line2d_34">
      <path d="M 690.679559 376.767831 
L 690.679559 49.92 
" clip-path="url(#p46b645fde6)" style="fill: none; stroke: #cccccc; stroke-opacity: 0.3; stroke-width: 0.8; stroke-linecap: round"/>
     </g>
     <g id="line2d_35"/>
     <g id="text_26">
      <!-- 60 -->
      <g style="fill: #262626" transform="translate(684.953309 387.106425) scale(0.09 -0.09)">
       <use xlink:href="#DejaVuSans-36"/>
       <use xlink:href="#DejaVuSans-30" x="63.623047"/>
      </g>
     </g>
    </g>
    <g id="text_27">
     <!-- LSTM Improvement (%) -->
     <g style="fill: #262626" transform="translate(478.090179 401.336425) scale(0.11 -0.11)">
      <defs>
       <path id="DejaVuSans-Bold-4c" d="M 588 4666 
L 1791 4666 
L 1791 909 
L 3903 909 
L 3903 0 
L 588 0 
L 588 4666 
z
" transform="scale(0.015625)"/>
       <path id="DejaVuSans-Bold-53" d="M 3834 4519 
L 3834 3531 
Q 3450 3703 3084 3790 
Q 2719 3878 2394 3878 
Q 1963 3878 1756 3759 
Q 1550 3641 1550 3391 
Q 1550 3203 1689 3098 
Q 1828 2994 2194 2919 
L 2706 2816 
Q 3484 2659 3812 2340 
Q 4141 2022 4141 1434 
Q 4141 663 3683 286 
Q 3225 -91 2284 -91 
Q 1841 -91 1394 -6 
Q 947 78 500 244 
L 500 1259 
Q 947 1022 1364 901 
Q 1781 781 2169 781 
Q 2563 781 2772 912 
Q 2981 1044 2981 1288 
Q 2981 1506 2839 1625 
Q 2697 1744 2272 1838 
L 1806 1941 
Q 1106 2091 782 2419 
Q 459 2747 459 3303 
Q 459 4000 909 4375 
Q 1359 4750 2203 4750 
Q 2588 4750 2994 4692 
Q 3400 4634 3834 4519 
z
" transform="scale(0.015625)"/>
       <path id="DejaVuSans-Bold-54" d="M 31 4666 
L 4331 4666 
L 4331 3756 
L 2784 3756 
L 2784 0 
L 1581 0 
L 1581 3756 
L 31 3756 
L 31 4666 
z
" transform="scale(0.015625)"/>
       <path id="DejaVuSans-Bold-49" d="M 588 4666 
L 1791 4666 
L 1791 0 
L 588 0 
L 588 4666 
z
" transform="scale(0.015625)"/>
       <path id="DejaVuSans-Bold-76" d="M 97 3500 
L 1216 3500 
L 2088 1081 
L 2956 3500 
L 4078 3500 
L 2700 0 
L 1472 0 
L 97 3500 
z
" transform="scale(0.015625)"/>
       <path id="DejaVuSans-Bold-25" d="M 4959 1925 
Q 4738 1925 4616 1733 
Q 4494 1541 4494 1184 
Q 4494 825 4614 633 
Q 4734 441 4959 441 
Q 5184 441 5303 633 
Q 5422 825 5422 1184 
Q 5422 1541 5301 1733 
Q 5181 1925 4959 1925 
z
M 4959 2450 
Q 5541 2450 5875 2112 
Q 6209 1775 6209 1184 
Q 6209 594 5875 251 
Q 5541 -91 4959 -91 
Q 4378 -91 4042 251 
Q 3706 594 3706 1184 
Q 3706 1772 4042 2111 
Q 4378 2450 4959 2450 
z
M 2094 -91 
L 1403 -91 
L 4319 4750 
L 5013 4750 
L 2094 -91 
z
M 1453 4750 
Q 2034 4750 2367 4411 
Q 2700 4072 2700 3481 
Q 2700 2891 2367 2550 
Q 2034 2209 1453 2209 
Q 872 2209 539 2550 
Q 206 2891 206 3481 
Q 206 4072 539 4411 
Q 872 4750 1453 4750 
z
M 1453 4225 
Q 1228 4225 1106 4031 
Q 984 3838 984 3481 
Q 984 3122 1106 2926 
Q 1228 2731 1453 2731 
Q 1678 2731 1798 2926 
Q 1919 3122 1919 3481 
Q 1919 3838 1797 4031 
Q 1675 4225 1453 4225 
z
" transform="scale(0.015625)"/>
      </defs>
      <use xlink:href="#DejaVuSans-Bold-4c"/>
      <use xlink:href="#DejaVuSans-Bold-53" x="63.720703"/>
      <use xlink:href="#DejaVuSans-Bold-54" x="135.742188"/>
      <use xlink:href="#DejaVuSans-Bold-4d" x="203.955078"/>
      <use xlink:href="#DejaVuSans-Bold-20" x="303.466797"/>
      <use xlink:href="#DejaVuSans-Bold-49" x="338.28125"/>
      <use xlink:href="#DejaVuSans-Bold-6d" x="375.488281"/>
      <use xlink:href="#DejaVuSans-Bold-70" x="479.6875"/>
      <use xlink:href="#DejaVuSans-Bold-72" x="551.269531"/>
      <use xlink:href="#DejaVuSans-Bold-6f" x="600.585938"/>
      <use xlink:href="#DejaVuSans-Bold-76" x="669.287109"/>
      <use xlink:href="#DejaVuSans-Bold-65" x="734.472656"/>
      <use xlink:href="#DejaVuSans-Bold-6d" x="802.294922"/>
      <use xlink:href="#DejaVuSans-Bold-65" x="906.494141"/>
      <use xlink:href="#DejaVuSans-Bold-6e" x="974.316406"/>
      <use xlink:href="#DejaVuSans-Bold-74" x="1045.507812"/>
      <use xlink:href="#DejaVuSans-Bold-20" x="1093.310547"/>
      <use xlink:href="#DejaVuSans-Bold-28" x="1128.125"/>
      <use xlink:href="#DejaVuSans-Bold-25" x="1173.828125"/>
      <use xlink:href="#DejaVuSans-Bold-29" x="1274.023438"/>
     </g>
    </g>
   </g>
   <g id="matplotlib.axis_4">
    <g id="ytick_8">
     <g id="line2d_36"/>
     <g id="text_28">
      <!-- Visual -->
      <g style="fill: #262626" transform="translate(379.219755 85.67451) scale(0.09 -0.09)">
       <defs>
        <path id="DejaVuSans-6c" d="M 603 4863 
L 1178 4863 
L 1178 0 
L 603 0 
L 603 4863 
z
" transform="scale(0.015625)"/>
       </defs>
       <use xlink:href="#DejaVuSans-56"/>
       <use xlink:href="#DejaVuSans-69" x="66.158203"/>
       <use xlink:href="#DejaVuSans-73" x="93.941406"/>
       <use xlink:href="#DejaVuSans-75" x="146.041016"/>
       <use xlink:href="#DejaVuSans-61" x="209.419922"/>
       <use xlink:href="#DejaVuSans-6c" x="270.699219"/>
      </g>
     </g>
    </g>
    <g id="ytick_9">
     <g id="line2d_37"/>
     <g id="text_29">
      <!-- Somatomotor -->
      <g style="fill: #262626" transform="translate(344.536005 129.370744) scale(0.09 -0.09)">
       <use xlink:href="#DejaVuSans-53"/>
       <use xlink:href="#DejaVuSans-6f" x="63.476562"/>
       <use xlink:href="#DejaVuSans-6d" x="124.658203"/>
       <use xlink:href="#DejaVuSans-61" x="222.070312"/>
       <use xlink:href="#DejaVuSans-74" x="283.349609"/>
       <use xlink:href="#DejaVuSans-6f" x="322.558594"/>
       <use xlink:href="#DejaVuSans-6d" x="383.740234"/>
       <use xlink:href="#DejaVuSans-6f" x="481.152344"/>
       <use xlink:href="#DejaVuSans-74" x="542.333984"/>
       <use xlink:href="#DejaVuSans-6f" x="581.542969"/>
       <use xlink:href="#DejaVuSans-72" x="642.724609"/>
      </g>
     </g>
    </g>
    <g id="ytick_10">
     <g id="line2d_38"/>
     <g id="text_30">
      <!-- DorsalAttention -->
      <g style="fill: #262626" transform="translate(335.704755 173.066978) scale(0.09 -0.09)">
       <defs>
        <path id="DejaVuSans-41" d="M 2188 4044 
L 1331 1722 
L 3047 1722 
L 2188 4044 
z
M 1831 4666 
L 2547 4666 
L 4325 0 
L 3669 0 
L 3244 1197 
L 1141 1197 
L 716 0 
L 50 0 
L 1831 4666 
z
" transform="scale(0.015625)"/>
       </defs>
       <use xlink:href="#DejaVuSans-44"/>
       <use xlink:href="#DejaVuSans-6f" x="77.001953"/>
       <use xlink:href="#DejaVuSans-72" x="138.183594"/>
       <use xlink:href="#DejaVuSans-73" x="179.296875"/>
       <use xlink:href="#DejaVuSans-61" x="231.396484"/>
       <use xlink:href="#DejaVuSans-6c" x="292.675781"/>
       <use xlink:href="#DejaVuSans-41" x="320.458984"/>
       <use xlink:href="#DejaVuSans-74" x="387.117188"/>
       <use xlink:href="#DejaVuSans-74" x="426.326172"/>
       <use xlink:href="#DejaVuSans-65" x="465.535156"/>
       <use xlink:href="#DejaVuSans-6e" x="527.058594"/>
       <use xlink:href="#DejaVuSans-74" x="590.4375"/>
       <use xlink:href="#DejaVuSans-69" x="629.646484"/>
       <use xlink:href="#DejaVuSans-6f" x="657.429688"/>
       <use xlink:href="#DejaVuSans-6e" x="718.611328"/>
      </g>
     </g>
    </g>
    <g id="ytick_11">
     <g id="line2d_39"/>
     <g id="text_31">
      <!-- VentralAttention -->
      <g style="fill: #262626" transform="translate(332.601161 216.763212) scale(0.09 -0.09)">
       <use xlink:href="#DejaVuSans-56"/>
       <use xlink:href="#DejaVuSans-65" x="60.658203"/>
       <use xlink:href="#DejaVuSans-6e" x="122.181641"/>
       <use xlink:href="#DejaVuSans-74" x="185.560547"/>
       <use xlink:href="#DejaVuSans-72" x="224.769531"/>
       <use xlink:href="#DejaVuSans-61" x="265.882812"/>
       <use xlink:href="#DejaVuSans-6c" x="327.162109"/>
       <use xlink:href="#DejaVuSans-41" x="354.945312"/>
       <use xlink:href="#DejaVuSans-74" x="421.603516"/>
       <use xlink:href="#DejaVuSans-74" x="460.8125"/>
       <use xlink:href="#DejaVuSans-65" x="500.021484"/>
       <use xlink:href="#DejaVuSans-6e" x="561.544922"/>
       <use xlink:href="#DejaVuSans-74" x="624.923828"/>
       <use xlink:href="#DejaVuSans-69" x="664.132812"/>
       <use xlink:href="#DejaVuSans-6f" x="691.916016"/>
       <use xlink:href="#DejaVuSans-6e" x="753.097656"/>
      </g>
     </g>
    </g>
    <g id="ytick_12">
     <g id="line2d_40"/>
     <g id="text_32">
      <!-- Limbic -->
      <g style="fill: #262626" transform="translate(376.63788 260.459447) scale(0.09 -0.09)">
       <defs>
        <path id="DejaVuSans-63" d="M 3122 3366 
L 3122 2828 
Q 2878 2963 2633 3030 
Q 2388 3097 2138 3097 
Q 1578 3097 1268 2742 
Q 959 2388 959 1747 
Q 959 1106 1268 751 
Q 1578 397 2138 397 
Q 2388 397 2633 464 
Q 2878 531 3122 666 
L 3122 134 
Q 2881 22 2623 -34 
Q 2366 -91 2075 -91 
Q 1284 -91 818 406 
Q 353 903 353 1747 
Q 353 2603 823 3093 
Q 1294 3584 2113 3584 
Q 2378 3584 2631 3529 
Q 2884 3475 3122 3366 
z
" transform="scale(0.015625)"/>
       </defs>
       <use xlink:href="#DejaVuSans-4c"/>
       <use xlink:href="#DejaVuSans-69" x="55.712891"/>
       <use xlink:href="#DejaVuSans-6d" x="83.496094"/>
       <use xlink:href="#DejaVuSans-62" x="180.908203"/>
       <use xlink:href="#DejaVuSans-69" x="244.384766"/>
       <use xlink:href="#DejaVuSans-63" x="272.167969"/>
      </g>
     </g>
    </g>
    <g id="ytick_13">
     <g id="line2d_41"/>
     <g id="text_33">
      <!-- Frontoparietal -->
      <g style="fill: #262626" transform="translate(343.30413 304.155681) scale(0.09 -0.09)">
       <defs>
        <path id="DejaVuSans-70" d="M 1159 525 
L 1159 -1331 
L 581 -1331 
L 581 3500 
L 1159 3500 
L 1159 2969 
Q 1341 3281 1617 3432 
Q 1894 3584 2278 3584 
Q 2916 3584 3314 3078 
Q 3713 2572 3713 1747 
Q 3713 922 3314 415 
Q 2916 -91 2278 -91 
Q 1894 -91 1617 61 
Q 1341 213 1159 525 
z
M 3116 1747 
Q 3116 2381 2855 2742 
Q 2594 3103 2138 3103 
Q 1681 3103 1420 2742 
Q 1159 2381 1159 1747 
Q 1159 1113 1420 752 
Q 1681 391 2138 391 
Q 2594 391 2855 752 
Q 3116 1113 3116 1747 
z
" transform="scale(0.015625)"/>
       </defs>
       <use xlink:href="#DejaVuSans-46"/>
       <use xlink:href="#DejaVuSans-72" x="50.269531"/>
       <use xlink:href="#DejaVuSans-6f" x="89.132812"/>
       <use xlink:href="#DejaVuSans-6e" x="150.314453"/>
       <use xlink:href="#DejaVuSans-74" x="213.693359"/>
       <use xlink:href="#DejaVuSans-6f" x="252.902344"/>
       <use xlink:href="#DejaVuSans-70" x="314.083984"/>
       <use xlink:href="#DejaVuSans-61" x="377.560547"/>
       <use xlink:href="#DejaVuSans-72" x="438.839844"/>
       <use xlink:href="#DejaVuSans-69" x="479.953125"/>
       <use xlink:href="#DejaVuSans-65" x="507.736328"/>
       <use xlink:href="#DejaVuSans-74" x="569.259766"/>
       <use xlink:href="#DejaVuSans-61" x="608.46875"/>
       <use xlink:href="#DejaVuSans-6c" x="669.748047"/>
      </g>
     </g>
    </g>
    <g id="ytick_14">
     <g id="line2d_42"/>
     <g id="text_34">
      <!-- Default -->
      <g style="fill: #262626" transform="translate(373.198192 347.851915) scale(0.09 -0.09)">
       <use xlink:href="#DejaVuSans-44"/>
       <use xlink:href="#DejaVuSans-65" x="77.001953"/>
       <use xlink:href="#DejaVuSans-66" x="138.525391"/>
       <use xlink:href="#DejaVuSans-61" x="173.730469"/>
       <use xlink:href="#DejaVuSans-75" x="235.009766"/>
       <use xlink:href="#DejaVuSans-6c" x="298.388672"/>
       <use xlink:href="#DejaVuSans-74" x="326.171875"/>
      </g>
     </g>
    </g>
   </g>
   <g id="patch_22">
    <path d="M 409.581942 64.77672 
L 669.075027 64.77672 
L 669.075027 99.733707 
L 409.581942 99.733707 
z
" clip-path="url(#p46b645fde6)" style="fill: #d62728; opacity: 0.8"/>
   </g>
   <g id="patch_23">
    <path d="M 409.581942 108.472954 
L 678.331709 108.472954 
L 678.331709 143.429941 
L 409.581942 143.429941 
z
" clip-path="url(#p46b645fde6)" style="fill: #ff7f0e; opacity: 0.8"/>
   </g>
   <g id="patch_24">
    <path d="M 409.581942 152.169188 
L 641.255721 152.169188 
L 641.255721 187.126175 
L 409.581942 187.126175 
z
" clip-path="url(#p46b645fde6)" style="fill: #bcbd22; opacity: 0.8"/>
   </g>
   <g id="patch_25">
    <path d="M 409.581942 195.865422 
L 640.475509 195.865422 
L 640.475509 230.822409 
L 409.581942 230.822409 
z
" clip-path="url(#p46b645fde6)" style="fill: #17becf; opacity: 0.8"/>
   </g>
   <g id="patch_26">
    <path d="M 409.581942 239.561656 
L 640.352494 239.561656 
L 640.352494 274.518643 
L 409.581942 274.518643 
z
" clip-path="url(#p46b645fde6)" style="fill: #2ca02c; opacity: 0.8"/>
   </g>
   <g id="patch_27">
    <path d="M 409.581942 283.25789 
L 631.921743 283.25789 
L 631.921743 318.214877 
L 409.581942 318.214877 
z
" clip-path="url(#p46b645fde6)" style="fill: #1f77b4; opacity: 0.8"/>
   </g>
   <g id="patch_28">
    <path d="M 409.581942 326.954124 
L 647.798677 326.954124 
L 647.798677 361.911112 
L 409.581942 361.911112 
z
" clip-path="url(#p46b645fde6)" style="fill: #9467bd; opacity: 0.8"/>
   </g>
   <g id="line2d_43">
    <path d="M 479.856347 376.767831 
L 479.856347 49.92 
" clip-path="url(#p46b645fde6)" style="fill: none; stroke-dasharray: 5.55,2.4; stroke-dashoffset: 0; stroke: #808080; stroke-opacity: 0.5; stroke-width: 1.5"/>
   </g>
   <g id="patch_29">
    <path d="M 409.581942 376.767831 
L 409.581942 49.92 
" style="fill: none; stroke: #262626; stroke-width: 1.25; stroke-linejoin: miter; stroke-linecap: square"/>
   </g>
   <g id="patch_30">
    <path d="M 409.581942 376.767831 
L 691.769197 376.767831 
" style="fill: none; stroke: #262626; stroke-width: 1.25; stroke-linejoin: miter; stroke-linecap: square"/>
   </g>
   <g id="text_35">
    <!-- 55.4% -->
    <g style="fill: #262626" transform="translate(671.417507 84.738651) scale(0.09 -0.09)">
     <defs>
      <path id="DejaVuSans-25" d="M 4653 2053 
Q 4381 2053 4226 1822 
Q 4072 1591 4072 1178 
Q 4072 772 4226 539 
Q 4381 306 4653 306 
Q 4919 306 5073 539 
Q 5228 772 5228 1178 
Q 5228 1588 5073 1820 
Q 4919 2053 4653 2053 
z
M 4653 2450 
Q 5147 2450 5437 2106 
Q 5728 1763 5728 1178 
Q 5728 594 5436 251 
Q 5144 -91 4653 -91 
Q 4153 -91 3862 251 
Q 3572 594 3572 1178 
Q 3572 1766 3864 2108 
Q 4156 2450 4653 2450 
z
M 1428 4353 
Q 1159 4353 1004 4120 
Q 850 3888 850 3481 
Q 850 3069 1003 2837 
Q 1156 2606 1428 2606 
Q 1700 2606 1854 2837 
Q 2009 3069 2009 3481 
Q 2009 3884 1853 4118 
Q 1697 4353 1428 4353 
z
M 4250 4750 
L 4750 4750 
L 1831 -91 
L 1331 -91 
L 4250 4750 
z
M 1428 4750 
Q 1922 4750 2215 4408 
Q 2509 4066 2509 3481 
Q 2509 2891 2217 2550 
Q 1925 2209 1428 2209 
Q 931 2209 642 2551 
Q 353 2894 353 3481 
Q 353 4063 643 4406 
Q 934 4750 1428 4750 
z
" transform="scale(0.015625)"/>
     </defs>
     <use xlink:href="#DejaVuSans-35"/>
     <use xlink:href="#DejaVuSans-35" x="63.623047"/>
     <use xlink:href="#DejaVuSans-2e" x="127.246094"/>
     <use xlink:href="#DejaVuSans-34" x="159.033203"/>
     <use xlink:href="#DejaVuSans-25" x="222.65625"/>
    </g>
   </g>
   <g id="text_36">
    <!-- 57.4% -->
    <g style="fill: #262626" transform="translate(680.674189 128.434885) scale(0.09 -0.09)">
     <defs>
      <path id="DejaVuSans-37" d="M 525 4666 
L 3525 4666 
L 3525 4397 
L 1831 0 
L 1172 0 
L 2766 4134 
L 525 4134 
L 525 4666 
z
" transform="scale(0.015625)"/>
     </defs>
     <use xlink:href="#DejaVuSans-35"/>
     <use xlink:href="#DejaVuSans-37" x="63.623047"/>
     <use xlink:href="#DejaVuSans-2e" x="127.246094"/>
     <use xlink:href="#DejaVuSans-34" x="159.033203"/>
     <use xlink:href="#DejaVuSans-25" x="222.65625"/>
    </g>
   </g>
   <g id="text_37">
    <!-- 49.5% -->
    <g style="fill: #262626" transform="translate(643.598201 172.131119) scale(0.09 -0.09)">
     <defs>
      <path id="DejaVuSans-39" d="M 703 97 
L 703 672 
Q 941 559 1184 500 
Q 1428 441 1663 441 
Q 2288 441 2617 861 
Q 2947 1281 2994 2138 
Q 2813 1869 2534 1725 
Q 2256 1581 1919 1581 
Q 1219 1581 811 2004 
Q 403 2428 403 3163 
Q 403 3881 828 4315 
Q 1253 4750 1959 4750 
Q 2769 4750 3195 4129 
Q 3622 3509 3622 2328 
Q 3622 1225 3098 567 
Q 2575 -91 1691 -91 
Q 1453 -91 1209 -44 
Q 966 3 703 97 
z
M 1959 2075 
Q 2384 2075 2632 2365 
Q 2881 2656 2881 3163 
Q 2881 3666 2632 3958 
Q 2384 4250 1959 4250 
Q 1534 4250 1286 3958 
Q 1038 3666 1038 3163 
Q 1038 2656 1286 2365 
Q 1534 2075 1959 2075 
z
" transform="scale(0.015625)"/>
     </defs>
     <use xlink:href="#DejaVuSans-34"/>
     <use xlink:href="#DejaVuSans-39" x="63.623047"/>
     <use xlink:href="#DejaVuSans-2e" x="127.246094"/>
     <use xlink:href="#DejaVuSans-35" x="159.033203"/>
     <use xlink:href="#DejaVuSans-25" x="222.65625"/>
    </g>
   </g>
   <g id="text_38">
    <!-- 49.3% -->
    <g style="fill: #262626" transform="translate(642.817989 215.827353) scale(0.09 -0.09)">
     <use xlink:href="#DejaVuSans-34"/>
     <use xlink:href="#DejaVuSans-39" x="63.623047"/>
     <use xlink:href="#DejaVuSans-2e" x="127.246094"/>
     <use xlink:href="#DejaVuSans-33" x="159.033203"/>
     <use xlink:href="#DejaVuSans-25" x="222.65625"/>
    </g>
   </g>
   <g id="text_39">
    <!-- 49.3% -->
    <g style="fill: #262626" transform="translate(642.694974 259.523587) scale(0.09 -0.09)">
     <use xlink:href="#DejaVuSans-34"/>
     <use xlink:href="#DejaVuSans-39" x="63.623047"/>
     <use xlink:href="#DejaVuSans-2e" x="127.246094"/>
     <use xlink:href="#DejaVuSans-33" x="159.033203"/>
     <use xlink:href="#DejaVuSans-25" x="222.65625"/>
    </g>
   </g>
   <g id="text_40">
    <!-- 47.5% -->
    <g style="fill: #262626" transform="translate(634.264223 303.219821) scale(0.09 -0.09)">
     <use xlink:href="#DejaVuSans-34"/>
     <use xlink:href="#DejaVuSans-37" x="63.623047"/>
     <use xlink:href="#DejaVuSans-2e" x="127.246094"/>
     <use xlink:href="#DejaVuSans-35" x="159.033203"/>
     <use xlink:href="#DejaVuSans-25" x="222.65625"/>
    </g>
   </g>
   <g id="text_41">
    <!-- 50.8% -->
    <g style="fill: #262626" transform="translate(650.141157 346.916055) scale(0.09 -0.09)">
     <defs>
      <path id="DejaVuSans-38" d="M 2034 2216 
Q 1584 2216 1326 1975 
Q 1069 1734 1069 1313 
Q 1069 891 1326 650 
Q 1584 409 2034 409 
Q 2484 409 2743 651 
Q 3003 894 3003 1313 
Q 3003 1734 2745 1975 
Q 2488 2216 2034 2216 
z
M 1403 2484 
Q 997 2584 770 2862 
Q 544 3141 544 3541 
Q 544 4100 942 4425 
Q 1341 4750 2034 4750 
Q 2731 4750 3128 4425 
Q 3525 4100 3525 3541 
Q 3525 3141 3298 2862 
Q 3072 2584 2669 2484 
Q 3125 2378 3379 2068 
Q 3634 1759 3634 1313 
Q 3634 634 3220 271 
Q 2806 -91 2034 -91 
Q 1263 -91 848 271 
Q 434 634 434 1313 
Q 434 1759 690 2068 
Q 947 2378 1403 2484 
z
M 1172 3481 
Q 1172 3119 1398 2916 
Q 1625 2713 2034 2713 
Q 2441 2713 2670 2916 
Q 2900 3119 2900 3481 
Q 2900 3844 2670 4047 
Q 2441 4250 2034 4250 
Q 1625 4250 1398 4047 
Q 1172 3844 1172 3481 
z
" transform="scale(0.015625)"/>
     </defs>
     <use xlink:href="#DejaVuSans-35"/>
     <use xlink:href="#DejaVuSans-30" x="63.623047"/>
     <use xlink:href="#DejaVuSans-2e" x="127.246094"/>
     <use xlink:href="#DejaVuSans-38" x="159.033203"/>
     <use xlink:href="#DejaVuSans-25" x="222.65625"/>
    </g>
   </g>
   <g id="text_42">
    <!-- B. Long-Range Model Benefit -->
    <g style="fill: #262626" transform="translate(409.581942 43.92) scale(0.12 -0.12)">
     <defs>
      <path id="DejaVuSans-Bold-2d" d="M 347 2297 
L 2309 2297 
L 2309 1388 
L 347 1388 
L 347 2297 
z
" transform="scale(0.015625)"/>
      <path id="DejaVuSans-Bold-52" d="M 2297 2597 
Q 2675 2597 2839 2737 
Q 3003 2878 3003 3200 
Q 3003 3519 2839 3656 
Q 2675 3794 2297 3794 
L 1791 3794 
L 1791 2597 
L 2297 2597 
z
M 1791 1766 
L 1791 0 
L 588 0 
L 588 4666 
L 2425 4666 
Q 3347 4666 3776 4356 
Q 4206 4047 4206 3378 
Q 4206 2916 3982 2619 
Q 3759 2322 3309 2181 
Q 3556 2125 3751 1926 
Q 3947 1728 4147 1325 
L 4800 0 
L 3519 0 
L 2950 1159 
Q 2778 1509 2601 1637 
Q 2425 1766 2131 1766 
L 1791 1766 
z
" transform="scale(0.015625)"/>
      <path id="DejaVuSans-Bold-66" d="M 2841 4863 
L 2841 4128 
L 2222 4128 
Q 1984 4128 1890 4042 
Q 1797 3956 1797 3744 
L 1797 3500 
L 2753 3500 
L 2753 2700 
L 1797 2700 
L 1797 0 
L 678 0 
L 678 2700 
L 122 2700 
L 122 3500 
L 678 3500 
L 678 3744 
Q 678 4316 997 4589 
Q 1316 4863 1984 4863 
L 2841 4863 
z
" transform="scale(0.015625)"/>
     </defs>
     <use xlink:href="#DejaVuSans-Bold-42"/>
     <use xlink:href="#DejaVuSans-Bold-2e" x="76.220703"/>
     <use xlink:href="#DejaVuSans-Bold-20" x="114.208984"/>
     <use xlink:href="#DejaVuSans-Bold-4c" x="149.023438"/>
     <use xlink:href="#DejaVuSans-Bold-6f" x="212.744141"/>
     <use xlink:href="#DejaVuSans-Bold-6e" x="281.445312"/>
     <use xlink:href="#DejaVuSans-Bold-67" x="352.636719"/>
     <use xlink:href="#DejaVuSans-Bold-2d" x="424.21875"/>
     <use xlink:href="#DejaVuSans-Bold-52" x="465.722656"/>
     <use xlink:href="#DejaVuSans-Bold-61" x="542.724609"/>
     <use xlink:href="#DejaVuSans-Bold-6e" x="610.205078"/>
     <use xlink:href="#DejaVuSans-Bold-67" x="681.396484"/>
     <use xlink:href="#DejaVuSans-Bold-65" x="752.978516"/>
     <use xlink:href="#DejaVuSans-Bold-20" x="820.800781"/>
     <use xlink:href="#DejaVuSans-Bold-4d" x="855.615234"/>
     <use xlink:href="#DejaVuSans-Bold-6f" x="955.126953"/>
     <use xlink:href="#DejaVuSans-Bold-64" x="1023.828125"/>
     <use xlink:href="#DejaVuSans-Bold-65" x="1095.410156"/>
     <use xlink:href="#DejaVuSans-Bold-6c" x="1163.232422"/>
     <use xlink:href="#DejaVuSans-Bold-20" x="1197.509766"/>
     <use xlink:href="#DejaVuSans-Bold-42" x="1232.324219"/>
     <use xlink:href="#DejaVuSans-Bold-65" x="1308.544922"/>
     <use xlink:href="#DejaVuSans-Bold-6e" x="1376.367188"/>
     <use xlink:href="#DejaVuSans-Bold-65" x="1447.558594"/>
     <use xlink:href="#DejaVuSans-Bold-66" x="1515.380859"/>
     <use xlink:href="#DejaVuSans-Bold-69" x="1558.886719"/>
     <use xlink:href="#DejaVuSans-Bold-74" x="1593.164062"/>
    </g>
   </g>
  </g>
  <g id="axes_3">
   <g id="patch_31">
    <path d="M 779.419197 376.767831 
L 1061.606452 376.767831 
L 1061.606452 49.92 
L 779.419197 49.92 
z
" style="fill: #ffffff"/>
   </g>
   <g id="matplotlib.axis_5">
    <g id="xtick_15">
     <g id="line2d_44">
      <path d="M 780.029992 376.767831 
L 780.029992 49.92 
" clip-path="url(#p0fc13f4b81)" style="fill: none; stroke: #cccccc; stroke-opacity: 0.3; stroke-width: 0.8; stroke-linecap: round"/>
     </g>
     <g id="line2d_45"/>
     <g id="text_43">
      <!-- 0.7 -->
      <g style="fill: #262626" transform="translate(772.873586 387.106425) scale(0.09 -0.09)">
       <use xlink:href="#DejaVuSans-30"/>
       <use xlink:href="#DejaVuSans-2e" x="63.623047"/>
       <use xlink:href="#DejaVuSans-37" x="95.410156"/>
      </g>
     </g>
    </g>
    <g id="xtick_16">
     <g id="line2d_46">
      <path d="M 841.109485 376.767831 
L 841.109485 49.92 
" clip-path="url(#p0fc13f4b81)" style="fill: none; stroke: #cccccc; stroke-opacity: 0.3; stroke-width: 0.8; stroke-linecap: round"/>
     </g>
     <g id="line2d_47"/>
     <g id="text_44">
      <!-- 0.8 -->
      <g style="fill: #262626" transform="translate(833.953078 387.106425) scale(0.09 -0.09)">
       <use xlink:href="#DejaVuSans-30"/>
       <use xlink:href="#DejaVuSans-2e" x="63.623047"/>
       <use xlink:href="#DejaVuSans-38" x="95.410156"/>
      </g>
     </g>
    </g>
    <g id="xtick_17">
     <g id="line2d_48">
      <path d="M 902.188977 376.767831 
L 902.188977 49.92 
" clip-path="url(#p0fc13f4b81)" style="fill: none; stroke: #cccccc; stroke-opacity: 0.3; stroke-width: 0.8; stroke-linecap: round"/>
     </g>
     <g id="line2d_49"/>
     <g id="text_45">
      <!-- 0.9 -->
      <g style="fill: #262626" transform="translate(895.032571 387.106425) scale(0.09 -0.09)">
       <use xlink:href="#DejaVuSans-30"/>
       <use xlink:href="#DejaVuSans-2e" x="63.623047"/>
       <use xlink:href="#DejaVuSans-39" x="95.410156"/>
      </g>
     </g>
    </g>
    <g id="xtick_18">
     <g id="line2d_50">
      <path d="M 963.268469 376.767831 
L 963.268469 49.92 
" clip-path="url(#p0fc13f4b81)" style="fill: none; stroke: #cccccc; stroke-opacity: 0.3; stroke-width: 0.8; stroke-linecap: round"/>
     </g>
     <g id="line2d_51"/>
     <g id="text_46">
      <!-- 1.0 -->
      <g style="fill: #262626" transform="translate(956.112063 387.106425) scale(0.09 -0.09)">
       <use xlink:href="#DejaVuSans-31"/>
       <use xlink:href="#DejaVuSans-2e" x="63.623047"/>
       <use xlink:href="#DejaVuSans-30" x="95.410156"/>
      </g>
     </g>
    </g>
    <g id="xtick_19">
     <g id="line2d_52">
      <path d="M 1024.347962 376.767831 
L 1024.347962 49.92 
" clip-path="url(#p0fc13f4b81)" style="fill: none; stroke: #cccccc; stroke-opacity: 0.3; stroke-width: 0.8; stroke-linecap: round"/>
     </g>
     <g id="line2d_53"/>
     <g id="text_47">
      <!-- 1.1 -->
      <g style="fill: #262626" transform="translate(1017.191556 387.106425) scale(0.09 -0.09)">
       <use xlink:href="#DejaVuSans-31"/>
       <use xlink:href="#DejaVuSans-2e" x="63.623047"/>
       <use xlink:href="#DejaVuSans-31" x="95.410156"/>
      </g>
     </g>
    </g>
    <g id="text_48">
     <!-- TDS (Fast → Slow) -->
     <g style="fill: #262626" transform="translate(865.099465 401.336425) scale(0.11 -0.11)">
      <defs>
       <path id="DejaVuSans-Bold-44" d="M 1791 3756 
L 1791 909 
L 2222 909 
Q 2959 909 3348 1275 
Q 3738 1641 3738 2338 
Q 3738 3031 3350 3393 
Q 2963 3756 2222 3756 
L 1791 3756 
z
M 588 4666 
L 1856 4666 
Q 2919 4666 3439 4514 
Q 3959 4363 4331 4000 
Q 4659 3684 4818 3271 
Q 4978 2859 4978 2338 
Q 4978 1809 4818 1395 
Q 4659 981 4331 666 
Q 3956 303 3431 151 
Q 2906 0 1856 0 
L 588 0 
L 588 4666 
z
" transform="scale(0.015625)"/>
       <path id="DejaVuSans-Bold-46" d="M 588 4666 
L 3834 4666 
L 3834 3756 
L 1791 3756 
L 1791 2888 
L 3713 2888 
L 3713 1978 
L 1791 1978 
L 1791 0 
L 588 0 
L 588 4666 
z
" transform="scale(0.015625)"/>
       <path id="DejaVuSans-Bold-2192" d="M 5050 2225 
L 5050 1788 
L 3822 559 
L 3369 1013 
L 3988 1631 
L 366 1631 
L 366 2381 
L 3988 2381 
L 3369 3000 
L 3822 3453 
L 5050 2225 
z
" transform="scale(0.015625)"/>
      </defs>
      <use xlink:href="#DejaVuSans-Bold-54"/>
      <use xlink:href="#DejaVuSans-Bold-44" x="68.212891"/>
      <use xlink:href="#DejaVuSans-Bold-53" x="151.220703"/>
      <use xlink:href="#DejaVuSans-Bold-20" x="223.242188"/>
      <use xlink:href="#DejaVuSans-Bold-28" x="258.056641"/>
      <use xlink:href="#DejaVuSans-Bold-46" x="303.759766"/>
      <use xlink:href="#DejaVuSans-Bold-61" x="366.195312"/>
      <use xlink:href="#DejaVuSans-Bold-73" x="433.675781"/>
      <use xlink:href="#DejaVuSans-Bold-74" x="493.197266"/>
      <use xlink:href="#DejaVuSans-Bold-20" x="541"/>
      <use xlink:href="#DejaVuSans-Bold-2192" x="575.814453"/>
      <use xlink:href="#DejaVuSans-Bold-20" x="659.603516"/>
      <use xlink:href="#DejaVuSans-Bold-53" x="694.417969"/>
      <use xlink:href="#DejaVuSans-Bold-6c" x="766.439453"/>
      <use xlink:href="#DejaVuSans-Bold-6f" x="800.716797"/>
      <use xlink:href="#DejaVuSans-Bold-77" x="869.417969"/>
      <use xlink:href="#DejaVuSans-Bold-29" x="961.800781"/>
     </g>
    </g>
   </g>
   <g id="matplotlib.axis_6">
    <g id="ytick_15">
     <g id="line2d_54">
      <path d="M 779.419197 330.544239 
L 1061.606452 330.544239 
" clip-path="url(#p0fc13f4b81)" style="fill: none; stroke: #cccccc; stroke-opacity: 0.3; stroke-width: 0.8; stroke-linecap: round"/>
     </g>
     <g id="line2d_55"/>
     <g id="text_49">
      <!-- 20 -->
      <g style="fill: #262626" transform="translate(764.466697 333.963536) scale(0.09 -0.09)">
       <use xlink:href="#DejaVuSans-32"/>
       <use xlink:href="#DejaVuSans-30" x="63.623047"/>
      </g>
     </g>
    </g>
    <g id="ytick_16">
     <g id="line2d_56">
      <path d="M 779.419197 267.810494 
L 1061.606452 267.810494 
" clip-path="url(#p0fc13f4b81)" style="fill: none; stroke: #cccccc; stroke-opacity: 0.3; stroke-width: 0.8; stroke-linecap: round"/>
     </g>
     <g id="line2d_57"/>
     <g id="text_50">
      <!-- 30 -->
      <g style="fill: #262626" transform="translate(764.466697 271.229791) scale(0.09 -0.09)">
       <use xlink:href="#DejaVuSans-33"/>
       <use xlink:href="#DejaVuSans-30" x="63.623047"/>
      </g>
     </g>
    </g>
    <g id="ytick_17">
     <g id="line2d_58">
      <path d="M 779.419197 205.076749 
L 1061.606452 205.076749 
" clip-path="url(#p0fc13f4b81)" style="fill: none; stroke: #cccccc; stroke-opacity: 0.3; stroke-width: 0.8; stroke-linecap: round"/>
     </g>
     <g id="line2d_59"/>
     <g id="text_51">
      <!-- 40 -->
      <g style="fill: #262626" transform="translate(764.466697 208.496046) scale(0.09 -0.09)">
       <use xlink:href="#DejaVuSans-34"/>
       <use xlink:href="#DejaVuSans-30" x="63.623047"/>
      </g>
     </g>
    </g>
    <g id="ytick_18">
     <g id="line2d_60">
      <path d="M 779.419197 142.343005 
L 1061.606452 142.343005 
" clip-path="url(#p0fc13f4b81)" style="fill: none; stroke: #cccccc; stroke-opacity: 0.3; stroke-width: 0.8; stroke-linecap: round"/>
     </g>
     <g id="line2d_61"/>
     <g id="text_52">
      <!-- 50 -->
      <g style="fill: #262626" transform="translate(764.466697 145.762301) scale(0.09 -0.09)">
       <use xlink:href="#DejaVuSans-35"/>
       <use xlink:href="#DejaVuSans-30" x="63.623047"/>
      </g>
     </g>
    </g>
    <g id="ytick_19">
     <g id="line2d_62">
      <path d="M 779.419197 79.60926 
L 1061.606452 79.60926 
" clip-path="url(#p0fc13f4b81)" style="fill: none; stroke: #cccccc; stroke-opacity: 0.3; stroke-width: 0.8; stroke-linecap: round"/>
     </g>
     <g id="line2d_63"/>
     <g id="text_53">
      <!-- 60 -->
      <g style="fill: #262626" transform="translate(764.466697 83.028557) scale(0.09 -0.09)">
       <use xlink:href="#DejaVuSans-36"/>
       <use xlink:href="#DejaVuSans-30" x="63.623047"/>
      </g>
     </g>
    </g>
    <g id="text_54">
     <!-- LSTM Improvement (%) -->
     <g style="fill: #262626" transform="translate(758.179041 285.929306) rotate(-90) scale(0.11 -0.11)">
      <use xlink:href="#DejaVuSans-Bold-4c"/>
      <use xlink:href="#DejaVuSans-Bold-53" x="63.720703"/>
      <use xlink:href="#DejaVuSans-Bold-54" x="135.742188"/>
      <use xlink:href="#DejaVuSans-Bold-4d" x="203.955078"/>
      <use xlink:href="#DejaVuSans-Bold-20" x="303.466797"/>
      <use xlink:href="#DejaVuSans-Bold-49" x="338.28125"/>
      <use xlink:href="#DejaVuSans-Bold-6d" x="375.488281"/>
      <use xlink:href="#DejaVuSans-Bold-70" x="479.6875"/>
      <use xlink:href="#DejaVuSans-Bold-72" x="551.269531"/>
      <use xlink:href="#DejaVuSans-Bold-6f" x="600.585938"/>
      <use xlink:href="#DejaVuSans-Bold-76" x="669.287109"/>
      <use xlink:href="#DejaVuSans-Bold-65" x="734.472656"/>
      <use xlink:href="#DejaVuSans-Bold-6d" x="802.294922"/>
      <use xlink:href="#DejaVuSans-Bold-65" x="906.494141"/>
      <use xlink:href="#DejaVuSans-Bold-6e" x="974.316406"/>
      <use xlink:href="#DejaVuSans-Bold-74" x="1045.507812"/>
      <use xlink:href="#DejaVuSans-Bold-20" x="1093.310547"/>
      <use xlink:href="#DejaVuSans-Bold-28" x="1128.125"/>
      <use xlink:href="#DejaVuSans-Bold-25" x="1173.828125"/>
      <use xlink:href="#DejaVuSans-Bold-29" x="1274.023438"/>
     </g>
    </g>
   </g>
   <g id="PathCollection_1">
    <defs>
     <path id="m83a57b9b72" d="M 0 6.123724 
C 1.624031 6.123724 3.181764 5.47849 4.330127 4.330127 
C 5.47849 3.181764 6.123724 1.624031 6.123724 0 
C 6.123724 -1.624031 5.47849 -3.181764 4.330127 -4.330127 
C 3.181764 -5.47849 1.624031 -6.123724 0 -6.123724 
C -1.624031 -6.123724 -3.181764 -5.47849 -4.330127 -4.330127 
C -5.47849 -3.181764 -6.123724 -1.624031 -6.123724 0 
C -6.123724 1.624031 -5.47849 3.181764 -4.330127 4.330127 
C -3.181764 5.47849 -1.624031 6.123724 0 6.123724 
z
" style="stroke: #ffffff; stroke-width: 2"/>
    </defs>
    <g clip-path="url(#p0fc13f4b81)">
     <use xlink:href="#m83a57b9b72" x="908.296926" y="108.538709" style="fill: #d62728; stroke: #ffffff; stroke-width: 2"/>
    </g>
   </g>
   <g id="PathCollection_2">
    <defs>
     <path id="m539624422d" d="M 0 6.123724 
C 1.624031 6.123724 3.181764 5.47849 4.330127 4.330127 
C 5.47849 3.181764 6.123724 1.624031 6.123724 0 
C 6.123724 -1.624031 5.47849 -3.181764 4.330127 -4.330127 
C 3.181764 -5.47849 1.624031 -6.123724 0 -6.123724 
C -1.624031 -6.123724 -3.181764 -5.47849 -4.330127 -4.330127 
C -5.47849 -3.181764 -6.123724 -1.624031 -6.123724 0 
C -6.123724 1.624031 -5.47849 3.181764 -4.330127 4.330127 
C -3.181764 5.47849 -1.624031 6.123724 0 6.123724 
z
" style="stroke: #ffffff; stroke-width: 2"/>
    </defs>
    <g clip-path="url(#p0fc13f4b81)">
     <use xlink:href="#m539624422d" x="969.376419" y="96.143592" style="fill: #ff7f0e; stroke: #ffffff; stroke-width: 2"/>
    </g>
   </g>
   <g id="PathCollection_3">
    <defs>
     <path id="mf3a9b3bd00" d="M 0 6.123724 
C 1.624031 6.123724 3.181764 5.47849 4.330127 4.330127 
C 5.47849 3.181764 6.123724 1.624031 6.123724 0 
C 6.123724 -1.624031 5.47849 -3.181764 4.330127 -4.330127 
C 3.181764 -5.47849 1.624031 -6.123724 0 -6.123724 
C -1.624031 -6.123724 -3.181764 -5.47849 -4.330127 -4.330127 
C -5.47849 -3.181764 -6.123724 -1.624031 -6.123724 0 
C -6.123724 1.624031 -5.47849 3.181764 -4.330127 4.330127 
C -3.181764 5.47849 -1.624031 6.123724 0 6.123724 
z
" style="stroke: #ffffff; stroke-width: 2"/>
    </defs>
    <g clip-path="url(#p0fc13f4b81)">
     <use xlink:href="#mf3a9b3bd00" x="1048.779759" y="145.790023" style="fill: #bcbd22; stroke: #ffffff; stroke-width: 2"/>
    </g>
   </g>
   <g id="PathCollection_4">
    <defs>
     <path id="md7ec770cd4" d="M 0 6.123724 
C 1.624031 6.123724 3.181764 5.47849 4.330127 4.330127 
C 5.47849 3.181764 6.123724 1.624031 6.123724 0 
C 6.123724 -1.624031 5.47849 -3.181764 4.330127 -4.330127 
C 3.181764 -5.47849 1.624031 -6.123724 0 -6.123724 
C -1.624031 -6.123724 -3.181764 -5.47849 -4.330127 -4.330127 
C -5.47849 -3.181764 -6.123724 -1.624031 -6.123724 0 
C -6.123724 1.624031 -5.47849 3.181764 -4.330127 4.330127 
C -3.181764 5.47849 -1.624031 6.123724 0 6.123724 
z
" style="stroke: #ffffff; stroke-width: 2"/>
    </defs>
    <g clip-path="url(#p0fc13f4b81)">
     <use xlink:href="#md7ec770cd4" x="792.245891" y="146.834762" style="fill: #17becf; stroke: #ffffff; stroke-width: 2"/>
    </g>
   </g>
   <g id="PathCollection_5">
    <defs>
     <path id="m8e0b205e00" d="M 0 6.123724 
C 1.624031 6.123724 3.181764 5.47849 4.330127 4.330127 
C 5.47849 3.181764 6.123724 1.624031 6.123724 0 
C 6.123724 -1.624031 5.47849 -3.181764 4.330127 -4.330127 
C 3.181764 -5.47849 1.624031 -6.123724 0 -6.123724 
C -1.624031 -6.123724 -3.181764 -5.47849 -4.330127 -4.330127 
C -5.47849 -3.181764 -6.123724 -1.624031 -6.123724 0 
C -6.123724 1.624031 -5.47849 3.181764 -4.330127 4.330127 
C -3.181764 5.47849 -1.624031 6.123724 0 6.123724 
z
" style="stroke: #ffffff; stroke-width: 2"/>
    </defs>
    <g clip-path="url(#p0fc13f4b81)">
     <use xlink:href="#m8e0b205e00" x="938.836672" y="146.999485" style="fill: #2ca02c; stroke: #ffffff; stroke-width: 2"/>
    </g>
   </g>
   <g id="PathCollection_6">
    <defs>
     <path id="m5c55e36e2d" d="M 0 6.123724 
C 1.624031 6.123724 3.181764 5.47849 4.330127 4.330127 
C 5.47849 3.181764 6.123724 1.624031 6.123724 0 
C 6.123724 -1.624031 5.47849 -3.181764 4.330127 -4.330127 
C 3.181764 -5.47849 1.624031 -6.123724 0 -6.123724 
C -1.624031 -6.123724 -3.181764 -5.47849 -4.330127 -4.330127 
C -5.47849 -3.181764 -6.123724 -1.624031 -6.123724 0 
C -6.123724 1.624031 -5.47849 3.181764 -4.330127 4.330127 
C -3.181764 5.47849 -1.624031 6.123724 0 6.123724 
z
" style="stroke: #ffffff; stroke-width: 2"/>
    </defs>
    <g clip-path="url(#p0fc13f4b81)">
     <use xlink:href="#m5c55e36e2d" x="1036.56386" y="158.288643" style="fill: #1f77b4; stroke: #ffffff; stroke-width: 2"/>
    </g>
   </g>
   <g id="PathCollection_7">
    <defs>
     <path id="mf3294c6f52" d="M 0 6.123724 
C 1.624031 6.123724 3.181764 5.47849 4.330127 4.330127 
C 5.47849 3.181764 6.123724 1.624031 6.123724 0 
C 6.123724 -1.624031 5.47849 -3.181764 4.330127 -4.330127 
C 3.181764 -5.47849 1.624031 -6.123724 0 -6.123724 
C -1.624031 -6.123724 -3.181764 -5.47849 -4.330127 -4.330127 
C -5.47849 -3.181764 -6.123724 -1.624031 -6.123724 0 
C -6.123724 1.624031 -5.47849 3.181764 -4.330127 4.330127 
C -3.181764 5.47849 -1.624031 6.123724 0 6.123724 
z
" style="stroke: #ffffff; stroke-width: 2"/>
    </defs>
    <g clip-path="url(#p0fc13f4b81)">
     <use xlink:href="#mf3294c6f52" x="865.541282" y="137.028708" style="fill: #9467bd; stroke: #ffffff; stroke-width: 2"/>
    </g>
   </g>
   <g id="patch_32">
    <path d="M 779.419197 361.911112 
L 779.419197 64.77672 
L 1061.606452 64.77672 
L 1061.606452 361.911112 
z
" clip-path="url(#p0fc13f4b81)" style="fill: #800080; opacity: 0.1; stroke: #800080; stroke-linejoin: miter"/>
   </g>
   <g id="line2d_64">
    <path d="M 792.245891 130.80605 
L 794.837142 130.867339 
L 797.428393 130.928628 
L 800.019644 130.989917 
L 802.610895 131.051207 
L 805.202147 131.112496 
L 807.793398 131.173785 
L 810.384649 131.235074 
L 812.9759 131.296363 
L 815.567151 131.357652 
L 818.158403 131.418942 
L 820.749654 131.480231 
L 823.340905 131.54152 
L 825.932156 131.602809 
L 828.523407 131.664098 
L 831.114659 131.725387 
L 833.70591 131.786677 
L 836.297161 131.847966 
L 838.888412 131.909255 
L 841.479663 131.970544 
L 844.070915 132.031833 
L 846.662166 132.093122 
L 849.253417 132.154411 
L 851.844668 132.215701 
L 854.435919 132.27699 
L 857.027171 132.338279 
L 859.618422 132.399568 
L 862.209673 132.460857 
L 864.800924 132.522146 
L 867.392175 132.583436 
L 869.983426 132.644725 
L 872.574678 132.706014 
L 875.165929 132.767303 
L 877.75718 132.828592 
L 880.348431 132.889881 
L 882.939682 132.951171 
L 885.530934 133.01246 
L 888.122185 133.073749 
L 890.713436 133.135038 
L 893.304687 133.196327 
L 895.895938 133.257616 
L 898.48719 133.318906 
L 901.078441 133.380195 
L 903.669692 133.441484 
L 906.260943 133.502773 
L 908.852194 133.564062 
L 911.443446 133.625351 
L 914.034697 133.68664 
L 916.625948 133.74793 
L 919.217199 133.809219 
L 921.80845 133.870508 
L 924.399702 133.931797 
L 926.990953 133.993086 
L 929.582204 134.054375 
L 932.173455 134.115665 
L 934.764706 134.176954 
L 937.355958 134.238243 
L 939.947209 134.299532 
L 942.53846 134.360821 
L 945.129711 134.42211 
L 947.720962 134.4834 
L 950.312213 134.544689 
L 952.903465 134.605978 
L 955.494716 134.667267 
L 958.085967 134.728556 
L 960.677218 134.789845 
L 963.268469 134.851135 
L 965.859721 134.912424 
L 968.450972 134.973713 
L 971.042223 135.035002 
L 973.633474 135.096291 
L 976.224725 135.15758 
L 978.815977 135.21887 
L 981.407228 135.280159 
L 983.998479 135.341448 
L 986.58973 135.402737 
L 989.180981 135.464026 
L 991.772233 135.525315 
L 994.363484 135.586604 
L 996.954735 135.647894 
L 999.545986 135.709183 
L 1002.137237 135.770472 
L 1004.728489 135.831761 
L 1007.31974 135.89305 
L 1009.910991 135.954339 
L 1012.502242 136.015629 
L 1015.093493 136.076918 
L 1017.684744 136.138207 
L 1020.275996 136.199496 
L 1022.867247 136.260785 
L 1025.458498 136.322074 
L 1028.049749 136.383364 
L 1030.641 136.444653 
L 1033.232252 136.505942 
L 1035.823503 136.567231 
L 1038.414754 136.62852 
L 1041.006005 136.689809 
L 1043.597256 136.751099 
L 1046.188508 136.812388 
L 1048.779759 136.873677 
" clip-path="url(#p0fc13f4b81)" style="fill: none; stroke-dasharray: 7.4,3.2; stroke-dashoffset: 0; stroke: #000000; stroke-opacity: 0.5; stroke-width: 2"/>
   </g>
   <g id="patch_33">
    <path d="M 779.419197 376.767831 
L 779.419197 49.92 
" style="fill: none; stroke: #262626; stroke-width: 1.25; stroke-linejoin: miter; stroke-linecap: square"/>
   </g>
   <g id="patch_34">
    <path d="M 779.419197 376.767831 
L 1061.606452 376.767831 
" style="fill: none; stroke: #262626; stroke-width: 1.25; stroke-linejoin: miter; stroke-linecap: square"/>
   </g>
   <g id="text_55">
    <!-- C. The Paradox: Slow Networks Benefit More -->
    <g style="fill: #262626" transform="translate(779.419197 43.92) scale(0.12 -0.12)">
     <defs>
      <path id="DejaVuSans-Bold-68" d="M 4056 2131 
L 4056 0 
L 2931 0 
L 2931 347 
L 2931 1625 
Q 2931 2084 2911 2256 
Q 2891 2428 2841 2509 
Q 2775 2619 2662 2680 
Q 2550 2741 2406 2741 
Q 2056 2741 1856 2470 
Q 1656 2200 1656 1722 
L 1656 0 
L 538 0 
L 538 4863 
L 1656 4863 
L 1656 2988 
Q 1909 3294 2193 3439 
Q 2478 3584 2822 3584 
Q 3428 3584 3742 3212 
Q 4056 2841 4056 2131 
z
" transform="scale(0.015625)"/>
      <path id="DejaVuSans-Bold-50" d="M 588 4666 
L 2584 4666 
Q 3475 4666 3951 4270 
Q 4428 3875 4428 3144 
Q 4428 2409 3951 2014 
Q 3475 1619 2584 1619 
L 1791 1619 
L 1791 0 
L 588 0 
L 588 4666 
z
M 1791 3794 
L 1791 2491 
L 2456 2491 
Q 2806 2491 2997 2661 
Q 3188 2831 3188 3144 
Q 3188 3456 2997 3625 
Q 2806 3794 2456 3794 
L 1791 3794 
z
" transform="scale(0.015625)"/>
      <path id="DejaVuSans-Bold-78" d="M 1422 1791 
L 159 3500 
L 1344 3500 
L 2059 2463 
L 2784 3500 
L 3969 3500 
L 2706 1797 
L 4031 0 
L 2847 0 
L 2059 1106 
L 1281 0 
L 97 0 
L 1422 1791 
z
" transform="scale(0.015625)"/>
      <path id="DejaVuSans-Bold-3a" d="M 716 3500 
L 1844 3500 
L 1844 2291 
L 716 2291 
L 716 3500 
z
M 716 1209 
L 1844 1209 
L 1844 0 
L 716 0 
L 716 1209 
z
" transform="scale(0.015625)"/>
     </defs>
     <use xlink:href="#DejaVuSans-Bold-43"/>
     <use xlink:href="#DejaVuSans-Bold-2e" x="73.388672"/>
     <use xlink:href="#DejaVuSans-Bold-20" x="111.376953"/>
     <use xlink:href="#DejaVuSans-Bold-54" x="146.191406"/>
     <use xlink:href="#DejaVuSans-Bold-68" x="214.404297"/>
     <use xlink:href="#DejaVuSans-Bold-65" x="285.595703"/>
     <use xlink:href="#DejaVuSans-Bold-20" x="353.417969"/>
     <use xlink:href="#DejaVuSans-Bold-50" x="388.232422"/>
     <use xlink:href="#DejaVuSans-Bold-61" x="458.898438"/>
     <use xlink:href="#DejaVuSans-Bold-72" x="526.378906"/>
     <use xlink:href="#DejaVuSans-Bold-61" x="575.695312"/>
     <use xlink:href="#DejaVuSans-Bold-64" x="643.175781"/>
     <use xlink:href="#DejaVuSans-Bold-6f" x="714.757812"/>
     <use xlink:href="#DejaVuSans-Bold-78" x="783.458984"/>
     <use xlink:href="#DejaVuSans-Bold-3a" x="847.960938"/>
     <use xlink:href="#DejaVuSans-Bold-20" x="887.951172"/>
     <use xlink:href="#DejaVuSans-Bold-53" x="922.765625"/>
     <use xlink:href="#DejaVuSans-Bold-6c" x="994.787109"/>
     <use xlink:href="#DejaVuSans-Bold-6f" x="1029.064453"/>
     <use xlink:href="#DejaVuSans-Bold-77" x="1097.765625"/>
     <use xlink:href="#DejaVuSans-Bold-20" x="1190.148438"/>
     <use xlink:href="#DejaVuSans-Bold-4e" x="1224.962891"/>
     <use xlink:href="#DejaVuSans-Bold-65" x="1308.654297"/>
     <use xlink:href="#DejaVuSans-Bold-74" x="1376.476562"/>
     <use xlink:href="#DejaVuSans-Bold-77" x="1424.279297"/>
     <use xlink:href="#DejaVuSans-Bold-6f" x="1516.662109"/>
     <use xlink:href="#DejaVuSans-Bold-72" x="1585.363281"/>
     <use xlink:href="#DejaVuSans-Bold-6b" x="1634.679688"/>
     <use xlink:href="#DejaVuSans-Bold-73" x="1701.183594"/>
     <use xlink:href="#DejaVuSans-Bold-20" x="1760.705078"/>
     <use xlink:href="#DejaVuSans-Bold-42" x="1795.519531"/>
     <use xlink:href="#DejaVuSans-Bold-65" x="1871.740234"/>
     <use xlink:href="#DejaVuSans-Bold-6e" x="1939.5625"/>
     <use xlink:href="#DejaVuSans-Bold-65" x="2010.753906"/>
     <use xlink:href="#DejaVuSans-Bold-66" x="2078.576172"/>
     <use xlink:href="#DejaVuSans-Bold-69" x="2122.082031"/>
     <use xlink:href="#DejaVuSans-Bold-74" x="2156.359375"/>
     <use xlink:href="#DejaVuSans-Bold-20" x="2204.162109"/>
     <use xlink:href="#DejaVuSans-Bold-4d" x="2238.976562"/>
     <use xlink:href="#DejaVuSans-Bold-6f" x="2338.488281"/>
     <use xlink:href="#DejaVuSans-Bold-72" x="2407.189453"/>
     <use xlink:href="#DejaVuSans-Bold-65" x="2456.505859"/>
    </g>
   </g>
   <g id="legend_2">
    <g id="PathCollection_8">
     <g>
      <use xlink:href="#m83a57b9b72" x="1084.350197" y="62.496094" style="fill: #d62728; stroke: #ffffff; stroke-width: 2"/>
     </g>
    </g>
    <g id="text_56">
     <!-- Visual -->
     <g style="fill: #262626" transform="translate(1100.550197 64.858594) scale(0.09 -0.09)">
      <use xlink:href="#DejaVuSans-56"/>
      <use xlink:href="#DejaVuSans-69" x="66.158203"/>
      <use xlink:href="#DejaVuSans-73" x="93.941406"/>
      <use xlink:href="#DejaVuSans-75" x="146.041016"/>
      <use xlink:href="#DejaVuSans-61" x="209.419922"/>
      <use xlink:href="#DejaVuSans-6c" x="270.699219"/>
     </g>
    </g>
    <g id="PathCollection_9">
     <g>
      <use xlink:href="#m539624422d" x="1084.350197" y="75.706406" style="fill: #ff7f0e; stroke: #ffffff; stroke-width: 2"/>
     </g>
    </g>
    <g id="text_57">
     <!-- Somatomotor -->
     <g style="fill: #262626" transform="translate(1100.550197 78.068906) scale(0.09 -0.09)">
      <use xlink:href="#DejaVuSans-53"/>
      <use xlink:href="#DejaVuSans-6f" x="63.476562"/>
      <use xlink:href="#DejaVuSans-6d" x="124.658203"/>
      <use xlink:href="#DejaVuSans-61" x="222.070312"/>
      <use xlink:href="#DejaVuSans-74" x="283.349609"/>
      <use xlink:href="#DejaVuSans-6f" x="322.558594"/>
      <use xlink:href="#DejaVuSans-6d" x="383.740234"/>
      <use xlink:href="#DejaVuSans-6f" x="481.152344"/>
      <use xlink:href="#DejaVuSans-74" x="542.333984"/>
      <use xlink:href="#DejaVuSans-6f" x="581.542969"/>
      <use xlink:href="#DejaVuSans-72" x="642.724609"/>
     </g>
    </g>
    <g id="PathCollection_10">
     <g>
      <use xlink:href="#mf3a9b3bd00" x="1084.350197" y="88.916719" style="fill: #bcbd22; stroke: #ffffff; stroke-width: 2"/>
     </g>
    </g>
    <g id="text_58">
     <!-- DorsalAttention -->
     <g style="fill: #262626" transform="translate(1100.550197 91.279219) scale(0.09 -0.09)">
      <use xlink:href="#DejaVuSans-44"/>
      <use xlink:href="#DejaVuSans-6f" x="77.001953"/>
      <use xlink:href="#DejaVuSans-72" x="138.183594"/>
      <use xlink:href="#DejaVuSans-73" x="179.296875"/>
      <use xlink:href="#DejaVuSans-61" x="231.396484"/>
      <use xlink:href="#DejaVuSans-6c" x="292.675781"/>
      <use xlink:href="#DejaVuSans-41" x="320.458984"/>
      <use xlink:href="#DejaVuSans-74" x="387.117188"/>
      <use xlink:href="#DejaVuSans-74" x="426.326172"/>
      <use xlink:href="#DejaVuSans-65" x="465.535156"/>
      <use xlink:href="#DejaVuSans-6e" x="527.058594"/>
      <use xlink:href="#DejaVuSans-74" x="590.4375"/>
      <use xlink:href="#DejaVuSans-69" x="629.646484"/>
      <use xlink:href="#DejaVuSans-6f" x="657.429688"/>
      <use xlink:href="#DejaVuSans-6e" x="718.611328"/>
     </g>
    </g>
    <g id="PathCollection_11">
     <g>
      <use xlink:href="#md7ec770cd4" x="1084.350197" y="102.127031" style="fill: #17becf; stroke: #ffffff; stroke-width: 2"/>
     </g>
    </g>
    <g id="text_59">
     <!-- VentralAttention -->
     <g style="fill: #262626" transform="translate(1100.550197 104.489531) scale(0.09 -0.09)">
      <use xlink:href="#DejaVuSans-56"/>
      <use xlink:href="#DejaVuSans-65" x="60.658203"/>
      <use xlink:href="#DejaVuSans-6e" x="122.181641"/>
      <use xlink:href="#DejaVuSans-74" x="185.560547"/>
      <use xlink:href="#DejaVuSans-72" x="224.769531"/>
      <use xlink:href="#DejaVuSans-61" x="265.882812"/>
      <use xlink:href="#DejaVuSans-6c" x="327.162109"/>
      <use xlink:href="#DejaVuSans-41" x="354.945312"/>
      <use xlink:href="#DejaVuSans-74" x="421.603516"/>
      <use xlink:href="#DejaVuSans-74" x="460.8125"/>
      <use xlink:href="#DejaVuSans-65" x="500.021484"/>
      <use xlink:href="#DejaVuSans-6e" x="561.544922"/>
      <use xlink:href="#DejaVuSans-74" x="624.923828"/>
      <use xlink:href="#DejaVuSans-69" x="664.132812"/>
      <use xlink:href="#DejaVuSans-6f" x="691.916016"/>
      <use xlink:href="#DejaVuSans-6e" x="753.097656"/>
     </g>
    </g>
    <g id="PathCollection_12">
     <g>
      <use xlink:href="#m8e0b205e00" x="1084.350197" y="115.337344" style="fill: #2ca02c; stroke: #ffffff; stroke-width: 2"/>
     </g>
    </g>
    <g id="text_60">
     <!-- Limbic -->
     <g style="fill: #262626" transform="translate(1100.550197 117.699844) scale(0.09 -0.09)">
      <use xlink:href="#DejaVuSans-4c"/>
      <use xlink:href="#DejaVuSans-69" x="55.712891"/>
      <use xlink:href="#DejaVuSans-6d" x="83.496094"/>
      <use xlink:href="#DejaVuSans-62" x="180.908203"/>
      <use xlink:href="#DejaVuSans-69" x="244.384766"/>
      <use xlink:href="#DejaVuSans-63" x="272.167969"/>
     </g>
    </g>
    <g id="PathCollection_13">
     <g>
      <use xlink:href="#m5c55e36e2d" x="1084.350197" y="128.547656" style="fill: #1f77b4; stroke: #ffffff; stroke-width: 2"/>
     </g>
    </g>
    <g id="text_61">
     <!-- Frontoparietal -->
     <g style="fill: #262626" transform="translate(1100.550197 130.910156) scale(0.09 -0.09)">
      <use xlink:href="#DejaVuSans-46"/>
      <use xlink:href="#DejaVuSans-72" x="50.269531"/>
      <use xlink:href="#DejaVuSans-6f" x="89.132812"/>
      <use xlink:href="#DejaVuSans-6e" x="150.314453"/>
      <use xlink:href="#DejaVuSans-74" x="213.693359"/>
      <use xlink:href="#DejaVuSans-6f" x="252.902344"/>
      <use xlink:href="#DejaVuSans-70" x="314.083984"/>
      <use xlink:href="#DejaVuSans-61" x="377.560547"/>
      <use xlink:href="#DejaVuSans-72" x="438.839844"/>
      <use xlink:href="#DejaVuSans-69" x="479.953125"/>
      <use xlink:href="#DejaVuSans-65" x="507.736328"/>
      <use xlink:href="#DejaVuSans-74" x="569.259766"/>
      <use xlink:href="#DejaVuSans-61" x="608.46875"/>
      <use xlink:href="#DejaVuSans-6c" x="669.748047"/>
     </g>
    </g>
    <g id="PathCollection_14">
     <g>
      <use xlink:href="#mf3294c6f52" x="1084.350197" y="141.757969" style="fill: #9467bd; stroke: #ffffff; stroke-width: 2"/>
     </g>
    </g>
    <g id="text_62">
     <!-- Default -->
     <g style="fill: #262626" transform="translate(1100.550197 144.120469) scale(0.09 -0.09)">
      <use xlink:href="#DejaVuSans-44"/>
      <use xlink:href="#DejaVuSans-65" x="77.001953"/>
      <use xlink:href="#DejaVuSans-66" x="138.525391"/>
      <use xlink:href="#DejaVuSans-61" x="173.730469"/>
      <use xlink:href="#DejaVuSans-75" x="235.009766"/>
      <use xlink:href="#DejaVuSans-6c" x="298.388672"/>
      <use xlink:href="#DejaVuSans-74" x="326.171875"/>
     </g>
    </g>
   </g>
  </g>
  <g id="text_63">
   <!-- LSTM vs Ridge: Long-Range Temporal Dependencies -->
   <g style="fill: #262626" transform="translate(437.916406 17.837812) scale(0.14 -0.14)">
    <use xlink:href="#DejaVuSans-Bold-4c"/>
    <use xlink:href="#DejaVuSans-Bold-53" x="63.720703"/>
    <use xlink:href="#DejaVuSans-Bold-54" x="135.742188"/>
    <use xlink:href="#DejaVuSans-Bold-4d" x="203.955078"/>
    <use xlink:href="#DejaVuSans-Bold-20" x="303.466797"/>
    <use xlink:href="#DejaVuSans-Bold-76" x="338.28125"/>
    <use xlink:href="#DejaVuSans-Bold-73" x="403.466797"/>
    <use xlink:href="#DejaVuSans-Bold-20" x="462.988281"/>
    <use xlink:href="#DejaVuSans-Bold-52" x="497.802734"/>
    <use xlink:href="#DejaVuSans-Bold-69" x="574.804688"/>
    <use xlink:href="#DejaVuSans-Bold-64" x="609.082031"/>
    <use xlink:href="#DejaVuSans-Bold-67" x="680.664062"/>
    <use xlink:href="#DejaVuSans-Bold-65" x="752.246094"/>
    <use xlink:href="#DejaVuSans-Bold-3a" x="820.068359"/>
    <use xlink:href="#DejaVuSans-Bold-20" x="860.058594"/>
    <use xlink:href="#DejaVuSans-Bold-4c" x="894.873047"/>
    <use xlink:href="#DejaVuSans-Bold-6f" x="958.59375"/>
    <use xlink:href="#DejaVuSans-Bold-6e" x="1027.294922"/>
    <use xlink:href="#DejaVuSans-Bold-67" x="1098.486328"/>
    <use xlink:href="#DejaVuSans-Bold-2d" x="1170.068359"/>
    <use xlink:href="#DejaVuSans-Bold-52" x="1211.572266"/>
    <use xlink:href="#DejaVuSans-Bold-61" x="1288.574219"/>
    <use xlink:href="#DejaVuSans-Bold-6e" x="1356.054688"/>
    <use xlink:href="#DejaVuSans-Bold-67" x="1427.246094"/>
    <use xlink:href="#DejaVuSans-Bold-65" x="1498.828125"/>
    <use xlink:href="#DejaVuSans-Bold-20" x="1566.650391"/>
    <use xlink:href="#DejaVuSans-Bold-54" x="1601.464844"/>
    <use xlink:href="#DejaVuSans-Bold-65" x="1656.427734"/>
    <use xlink:href="#DejaVuSans-Bold-6d" x="1724.25"/>
    <use xlink:href="#DejaVuSans-Bold-70" x="1828.449219"/>
    <use xlink:href="#DejaVuSans-Bold-6f" x="1900.03125"/>
    <use xlink:href="#DejaVuSans-Bold-72" x="1968.732422"/>
    <use xlink:href="#DejaVuSans-Bold-61" x="2018.048828"/>
    <use xlink:href="#DejaVuSans-Bold-6c" x="2085.529297"/>
    <use xlink:href="#DejaVuSans-Bold-20" x="2119.806641"/>
    <use xlink:href="#DejaVuSans-Bold-44" x="2154.621094"/>
    <use xlink:href="#DejaVuSans-Bold-65" x="2237.628906"/>
    <use xlink:href="#DejaVuSans-Bold-70" x="2305.451172"/>
    <use xlink:href="#DejaVuSans-Bold-65" x="2377.033203"/>
    <use xlink:href="#DejaVuSans-Bold-6e" x="2444.855469"/>
    <use xlink:href="#DejaVuSans-Bold-64" x="2516.046875"/>
    <use xlink:href="#DejaVuSans-Bold-65" x="2587.628906"/>
    <use xlink:href="#DejaVuSans-Bold-6e" x="2655.451172"/>
    <use xlink:href="#DejaVuSans-Bold-63" x="2726.642578"/>
    <use xlink:href="#DejaVuSans-Bold-69" x="2785.919922"/>
    <use xlink:href="#DejaVuSans-Bold-65" x="2820.197266"/>
    <use xlink:href="#DejaVuSans-Bold-73" x="2888.019531"/>
   </g>
  </g>
 </g>
 <defs>
  <clipPath id="p9ac76117c8">
   <rect x="39.744688" y="49.92" width="282.187255" height="326.847831"/>
  </clipPath>
  <clipPath id="p46b645fde6">
   <rect x="409.581942" y="49.92" width="282.187255" height="326.847831"/>
  </clipPath>
  <clipPath id="p0fc13f4b81">
   <rect x="779.419197" y="49.92" width="282.187255" height="326.847831"/>
  </clipPath>
 </defs>
</svg>
